<?xml version="1.0" standalone="no"?>
<!DOCTYPE svg PUBLIC "-//W3C//DTD SVG 1.1//EN" "http://www.w3.org/Graphics/SVG/1.1/DTD/svg11.dtd" >
<svg xmlns="http://www.w3.org/2000/svg">
<metadata></metadata>
<defs>
<font id="procionoregular" horiz-adv-x="983" >
<font-face units-per-em="2048" ascent="1632" descent="-416" />
<missing-glyph horiz-adv-x="491" />
<glyph unicode="&#xfb01;" horiz-adv-x="1228" d="M61 918v69l183 31q0 618 522 618q58 0 97 -7.5t62.5 -20t36 -37t16 -50.5t3.5 -69q0 -16 -1 -57t-1 -66l-88 -8q-25 132 -69 187t-105 55q-55 0 -102 -32.5t-77.5 -85.5t-50 -108.5t-28.5 -111.5q-10 -64 -10 -193h247q65 0 141.5 11t129 22.5t59.5 11.5q35 0 35 -33 q0 -24 -2.5 -133.5t-5 -310.5t-2.5 -446q0 -41 33.5 -60t103.5 -24v-70h-475v70q73 5 105 15.5t42 30t10 62.5v426q0 222 -8 269t-51 47q-10 0 -24.5 -0.5t-36.5 -0.5t-100 -0.5t-201 -0.5q-9 -484 -9 -719q0 -21 0.5 -34.5t5 -25.5t8 -19t14.5 -14t20 -10t30 -7.5t38 -7 t50.5 -8t61.5 -10.5v-63h-574v70q105 16 125 25q31 14 36 55q3 20 3 59q0 143 -12 709h-185z" />
<glyph unicode="&#xfb02;" horiz-adv-x="1253" d="M61 918v69l183 31q0 92 17 179t54 167t89.5 139.5t130 95t170.5 35.5h335q33 0 33 -30q4 -166 4 -422q0 -263 -10 -549.5t-10 -437.5q0 -28 1 -45t9 -31t14 -20.5t27.5 -12.5t37 -8t54.5 -7q5 -1 8 -1v-70h-483v70q16 3 43 7q67 12 85 26q26 21 30 101l2 79 q0 119 3 565.5t3 486.5q0 78 -9.5 124.5t-33.5 69t-51 28.5t-76 6q-73 0 -129 -49.5t-85.5 -128t-43.5 -160t-14 -162.5v-31h274l-6 -114h-268q-7 -376 -7 -719q0 -21 0.5 -34.5t4.5 -25.5t7.5 -19t14.5 -14t20 -10t30 -7.5t37.5 -7t50 -8t61.5 -10.5v-63h-574v70 q105 16 125 25q31 14 36 55q3 20 3 59q0 143 -12 709h-185z" />
<glyph unicode="&#xfb03;" horiz-adv-x="1882" d="M61 918v69l183 31q0 92 17 179t54 167t89.5 139.5t130 95t170.5 35.5q99 0 132 -54t33 -177q0 -12 -1 -37t-1 -39l-88 -2q-22 120 -56 177t-73 57q-48 0 -95 -73.5t-77 -189.5t-30 -233v-31h448q7 604 522 604q58 0 97 -7.5t62.5 -20t36 -37t16 -50.5t3.5 -69 q0 -16 -1 -57t-1 -66l-88 -8q-25 132 -69 187t-105 55q-55 0 -102 -32.5t-77.5 -85.5t-50 -108.5t-28.5 -111.5q-10 -64 -10 -193h248q65 0 141 11t128.5 22.5t59.5 11.5q35 0 35 -33q0 -24 -2.5 -133.5t-5 -310.5t-2.5 -446q0 -41 33.5 -60t103.5 -24v-70h-475v70 q105 7 131.5 26.5t26.5 81.5v426q0 221 -8.5 268.5t-51.5 47.5q-10 0 -24.5 -0.5t-36.5 -0.5t-100 -0.5t-201 -0.5q-8 -430 -8 -719q0 -21 0.5 -34.5t5 -25.5t7.5 -19t14.5 -14t20 -10t30 -7.5t38 -7t50 -8t61.5 -10.5v-63h-573v70q8 1 23 4q91 13 111 26q25 16 28 69 q1 15 1 40q0 143 -12 709h-450q-9 -484 -9 -719q0 -21 0.5 -34.5t5 -25.5t8 -19t14.5 -14t20 -10t30 -7.5t38 -7t50.5 -8t61.5 -10.5v-63h-574v70q105 16 125 25q31 14 36 55q3 20 3 59q0 143 -12 709h-185z" />
<glyph unicode="&#xfb04;" horiz-adv-x="1906" d="M61 918v69l183 31q0 92 17 179t54 167t89.5 139.5t130 95t170.5 35.5q99 0 132 -54t33 -177q0 -12 -1 -37t-1 -39l-88 -2q-22 120 -56 177t-73 57q-48 0 -95 -73.5t-77 -189.5t-30 -233v-31h448q1 91 19 176t55 163t89.5 136t129.5 92.5t168 34.5h336q32 0 32 -30 q5 -207 5 -422q0 -263 -10.5 -549.5t-10.5 -437.5q0 -28 1.5 -45t8.5 -31t15 -20.5t27 -12t37.5 -8.5t53.5 -7h3t3 -0.5t3 -0.5v-70h-484v70q16 3 43 7q67 12 85 26q26 21 30 101q2 29 2 79q0 119 3 565.5t3 486.5q0 78 -9.5 124.5t-33.5 69t-51 28.5t-76 6 q-73 0 -129 -49.5t-85.5 -128t-43.5 -160t-14 -162.5v-31h274l-6 -114h-268q-6 -323 -6 -719q0 -21 0.5 -34.5t4.5 -25.5t7.5 -19t14.5 -14t19.5 -10t29.5 -7.5t37.5 -7t50 -8t61.5 -10.5v-63h-573v70q8 1 23 4q91 13 111 26q25 16 28 69q1 15 1 40q0 143 -12 709h-450 q-9 -484 -9 -719q0 -21 0.5 -34.5t5 -25.5t8 -19t14.5 -14t20 -10t30 -7.5t38 -7t50.5 -8t61.5 -10.5v-63h-574v70q105 16 125 25q31 14 36 55q3 20 3 59q0 143 -12 709h-185z" />
<glyph horiz-adv-x="2048" />
<glyph horiz-adv-x="2048" />
<glyph unicode="&#xd;" horiz-adv-x="2048" />
<glyph unicode=" "  horiz-adv-x="491" />
<glyph unicode="&#x09;" horiz-adv-x="491" />
<glyph unicode="&#xa0;" horiz-adv-x="491" />
<glyph unicode="!" horiz-adv-x="491" d="M115 172q0 26 35.5 78.5t70.5 52.5q34 0 80.5 -75.5t46.5 -104.5q0 -34 -49.5 -88.5t-85.5 -54.5q-28 0 -63 84.5t-35 107.5zM141 1520q146 20 209 34l25 -22q-76 -950 -111 -1131l-67 13l-11 172q-45 818 -45 934z" />
<glyph unicode="&#x22;" horiz-adv-x="753" d="M123 1620q27 12 94 12t94 -12l-53 -463h-82zM442 1620q27 12 95 12q67 0 94 -12l-53 -463h-82z" />
<glyph unicode="#" horiz-adv-x="997" d="M98 334l19 90h159l19 190h-158l19 91h155q25 197 25 268q11 5 46.5 10t65.5 7l29 3q-41 -125 -55 -284h196q25 197 25 268q11 5 45 9t62 6l28 1q-40 -137 -53 -280h190l-20 -95h-180l-25 -186h182l-18 -98h-162q-22 -99 -22 -303q-11 -5 -43.5 -11t-58.5 -9l-27 -3 q23 127 41 324h-205q-21 -95 -21 -299q-10 -5 -42 -11t-58 -9l-27 -3q29 184 39 324h-170zM387 426h199l24 190h-200z" />
<glyph unicode="$" d="M172 733q0 99 35 152q58 94 108.5 133.5t124.5 50.5v176h84v-170h6q86 0 168 -35q22 -9 33.5 -15.5t24 -28.5t12.5 -56q0 -6 -1.5 -31.5t-3 -71t-1.5 -98.5h-76q-2 26 -17.5 78t-33.5 78q-30 46 -111 57v-315q37 -13 59 -21.5t56 -24.5t55 -31.5t46 -39.5t38.5 -51 t23 -64t9.5 -81q0 -108 -31 -160q-35 -56 -67.5 -92t-66 -55.5t-58.5 -28t-64 -15.5v-170h-84v162q-108 1 -168.5 23t-78.5 51q-17 27 -17 70q0 89 1.5 132.5t8 70.5t16 32.5t29.5 5.5q24 0 35 -19t12 -45t9.5 -62.5t27.5 -61.5q34 -53 125 -64v344q-48 17 -79 29.5 t-71 37.5t-62.5 53t-39 72t-16.5 99zM309 819q0 -56 33 -89.5t98 -61.5v284q-41 -6 -69.5 -22.5t-40.5 -38.5t-16.5 -39t-4.5 -33zM524 98q73 9 113.5 48.5t40.5 103.5t-40 100.5t-114 63.5v-316z" />
<glyph unicode="%" horiz-adv-x="1427" d="M86 756q0 166 100 245q41 33 90.5 52.5t77.5 19.5q56 0 102 -18.5t76.5 -50t51.5 -73t30 -86.5t9 -93q0 -26 -8 -66.5t-17 -64.5q-7 -17 -25 -42.5t-49 -58.5t-79 -55.5t-101 -22.5q-121 0 -189.5 87.5t-68.5 226.5zM190 758q0 -87 55 -141t117 -54q88 0 121 42t33 147 q0 90 -52.5 145t-117.5 55q-25 0 -41 -1.5t-40.5 -12t-38.5 -30t-25 -58t-11 -92.5zM307 -6l723 1106l76 -49l-723 -1106zM803 289q0 164 100 246q41 33 90.5 52t77.5 19q69 0 123 -28.5t85 -75.5t46.5 -102t15.5 -115q0 -27 -8.5 -67.5t-17.5 -63.5q-7 -17 -25 -42.5 t-49 -58.5t-79 -55.5t-101 -22.5q-122 0 -190 87t-68 227zM907 291q0 -87 55 -141t117 -54q88 0 121 41.5t33 147.5q0 90 -52.5 144t-117.5 54q-25 0 -40.5 -1.5t-40 -11.5t-39 -29t-25.5 -57.5t-11 -92.5z" />
<glyph unicode="&#x26;" horiz-adv-x="1597" d="M92 397q0 92 36.5 173t98.5 135q104 94 242 176q-178 220 -178 383q0 118 107 211.5t261 93.5q108 0 171 -14t86.5 -37.5t23.5 -61.5q0 -101 -76 -260l-69 16q10 63 10 84q0 152 -164 152q-72 0 -122 -44.5t-50 -121.5q0 -114 172 -341.5t457 -485.5q53 97 81.5 201.5 t28.5 189.5q0 73 -33.5 99t-117.5 32v67q77 -6 221 -6t221 6v-67q-54 -4 -88 -16.5t-53.5 -38t-30 -57.5t-22 -82t-24.5 -103.5t-42.5 -131.5t-71.5 -157q181 -158 410 -323v-68q-168 0 -272 -8l-236 248q-73 -96 -178 -168l-66 -45q-56 -39 -104.5 -51.5t-173.5 -12.5 q-65 0 -93 2t-67.5 12.5t-71.5 34t-77 66.5q-146 140 -146 319zM295 453q0 -135 100.5 -233.5t237.5 -98.5q207 0 368 190l-471 500q-121 -78 -178 -170.5t-57 -187.5z" />
<glyph unicode="'" horiz-adv-x="434" d="M123 1620q27 12 94 12t94 -12l-53 -463h-82z" />
<glyph unicode="(" horiz-adv-x="675" d="M205 606q0 178 36.5 359.5t80.5 289.5q17 41 43 84.5t54 80t58 71t57.5 61t49 47t34.5 31.5l13 12l45 -45q-64 -96 -126 -216t-89 -181q-62 -127 -62 -594q0 -465 62 -594q109 -236 215 -395l-45 -45l-2 1q-144 123 -238 260q-44 66 -69 126q-43 105 -80 289t-37 358z " />
<glyph unicode=")" horiz-adv-x="675" d="M0 -383q106 159 215 395q61 127 61 594q0 470 -61 594q-27 61 -89 181t-126 216l45 45l13 -12q13 -11 34.5 -31.5t49 -47t57.5 -61t58 -71t54 -80t43 -84.5q44 -108 80.5 -289.5t36.5 -359.5q0 -174 -37 -358t-80 -289q-27 -66 -76.5 -137t-100 -123t-84 -83.5 t-46.5 -42.5l-2 -1z" />
<glyph unicode="*" horiz-adv-x="1064" d="M102 1135l45 161l29 17l328 -158l-78 379l168 4l24 -20l-47 -361l334 193l58 -160l-13 -31l-358 -63l287 -260l-134 -105l-32 4l-172 320l-160 -353l-139 95l-6 32l249 263z" />
<glyph unicode="+" d="M23 512l28 135h375v379l115 27l22 -25l-2 -381h381l25 -22l-27 -113h-377l-2 -375l-135 -28v403h-403z" />
<glyph unicode="," horiz-adv-x="491" d="M129 180q0 3 17.5 32.5t42.5 60t42 30.5q33 0 82 -77.5t49 -127.5q0 -49 -40.5 -130.5t-86.5 -141t-65 -59.5q-5 0 -18 11t-13 21q0 8 20.5 35t41 67t20.5 79q0 35 -23 74.5t-46 72.5t-23 53z" />
<glyph unicode="-" horiz-adv-x="552" d="M35 512l28 135h433l22 -22l-24 -113h-459z" />
<glyph unicode="." horiz-adv-x="491" d="M129 172q0 25 36 78t71 53q34 0 80 -75.5t46 -104.5q0 -34 -49.5 -88.5t-85.5 -54.5q-28 0 -63 84.5t-35 107.5z" />
<glyph unicode="/" d="M-41 -287l940 1919h125l-936 -1919h-129z" />
<glyph unicode="0" d="M61 516q0 151 43.5 260t116.5 174q65 57 144 91t124 34q90 0 163.5 -33t122.5 -88.5t83 -129.5t49 -153t15 -163q0 -44 -13.5 -116.5t-27.5 -112.5q-8 -22 -26.5 -55.5t-55.5 -80t-81.5 -86t-109 -67t-133.5 -27.5q-130 0 -224.5 72t-142 196t-47.5 285zM199 520 q0 -87 29 -161.5t75 -120.5t99 -71.5t104 -25.5q156 0 214 80.5t58 286.5q0 89 -27 165t-71 124t-97.5 75t-107.5 27q-31 0 -50.5 -1t-52 -9t-53.5 -21.5t-46 -41.5t-39.5 -67.5t-24.5 -100.5t-10 -138z" />
<glyph unicode="1" d="M123 799q479 258 571 276l25 -22q-25 -384 -25 -637q0 -121 2 -187q1 -24 1.5 -35.5t3 -29.5t6 -26t11 -20t17 -17t25 -12.5t34.5 -10.5t46 -6.5t58.5 -5.5t72.5 -3v-63h-783v63h52q36 1 61.5 2t61 4t60 9.5t47.5 16.5t36 25.5t14 35.5q3 20 6.5 124t3.5 148 q0 63 -12 410q-114 0 -366 -101z" />
<glyph unicode="2" d="M20 59l72 60l234 182q81 64 134 110.5t102.5 101t73 105.5t23.5 101q0 41 -9 74t-31.5 64.5t-69.5 49t-115 17.5q-59 0 -109 -14t-171 -70l-29 59l250 168q46 12 110 12q53 0 103 -8.5t101.5 -30.5t90 -56t62.5 -88.5t24 -123.5q0 -56 -24.5 -114t-60.5 -105.5t-91.5 -99 t-102.5 -88t-108 -78.5l-106 -72q-64 -45 -82 -59q152 -4 205 -4q231 0 411 18l25 -23q-8 -70 -8 -147h-875z" />
<glyph unicode="3" d="M41 -322l10 17q41 -6 78 -6q128 0 251 61.5t198 158.5t75 197q0 51 -14.5 91t-50.5 76.5t-108 56.5t-177 20q-7 0 -22 -1t-23 -1l-14 90q102 16 178 46.5t115 61.5t62 69t28.5 61.5t5.5 46.5q0 45 -19.5 83t-46 60t-57 38t-50.5 22t-28 6q-31 0 -107 -26t-182 -85l-32 58 l225 180q59 16 113 16q90 0 173 -35t139 -105t56 -159q0 -210 -276 -336q126 -3 214.5 -91t88.5 -193q0 -79 -33 -160t-98.5 -154.5t-155 -131.5t-211.5 -92t-258 -34z" />
<glyph unicode="4" d="M-6 94l145 279q112 198 243 406t187 276q15 6 76 14t96 8l15 -16v-903q66 0 219 10q8 -6 16 -14q-6 -48 -37 -154h-45q-98 0 -153 -4q1 -112 4 -209t6 -139l2 -41q-31 -1 -89.5 -11.5t-90.5 -19.5l-27 -10q6 195 8 428q-426 0 -526 6zM168 182l25 -22q93 -8 202 -8 q131 0 176 2q9 316 9 538v189q-81 -88 -228.5 -333t-183.5 -366z" />
<glyph unicode="5" d="M45 -322l10 17q41 -6 78 -6q129 0 245 53.5t185.5 142.5t69.5 189q0 54 -6 96.5t-19 73.5t-27.5 53.5t-39 37t-46.5 23.5t-56 13t-60.5 5t-67.5 1h-114l-43 37q86 536 94 602l28 28q54 -4 168 -4q121 0 355 9l24 -23q-12 -58 -12 -160q-316 4 -317 4q-46 0 -168 -4 q-11 -53 -26.5 -159.5t-18.5 -157.5q59 6 149 6q74 0 144 -21.5t130.5 -64t97 -115.5t36.5 -166q0 -185 -101 -324t-269 -209.5t-376 -70.5z" />
<glyph unicode="6" d="M51 551q0 146 27 273.5t65.5 213.5t95.5 162t102 118t99 83q145 109 330 170l39 -64q-19 -8 -85 -44t-120 -70l-35 -23q-51 -35 -104 -97.5t-98.5 -140t-76 -171.5t-34.5 -183q32 50 67 81t101 52t160 21q57 0 107 -12.5t96 -42t79 -75.5t52.5 -117.5t19.5 -162.5 q0 -100 -18 -183t-47 -139.5t-69.5 -100t-81.5 -68.5t-87.5 -40.5t-82.5 -20.5t-71 -5q-70 0 -130 16t-116.5 57t-96 105.5t-63.5 168.5t-24 239zM246 635q0 -20 1 -51.5t1 -38.5l2 -37q2 -50 6 -88.5t12.5 -86t21 -82.5t33.5 -70t49 -57t68 -36t90 -14q60 0 107 35t74.5 93 t41 125t13.5 138q0 155 -42 228t-144 104q-41 14 -99 14q-52 0 -91 -9.5t-66.5 -30t-41 -35.5t-34.5 -44q0 -9 -1 -28t-1 -29z" />
<glyph unicode="7" d="M82 688q10 170 10 227q0 64 -2 101l29 28q78 -4 452 -4q251 0 373 4l25 -22q-7 -126 -148.5 -429t-313.5 -595t-284 -432q-38 15 -82 49q261 403 395 690t212 545l-25 22q-439 0 -492 2q-13 -7 -31 -42t-59 -144h-59z" />
<glyph unicode="8" d="M43 397q0 147 62.5 245t209.5 183q-102 57 -163.5 167.5t-61.5 187.5q0 175 115.5 292t288.5 117q194 0 304.5 -92t110.5 -229q0 -101 -66 -202.5t-194 -182.5l70 -35q105 -57 162 -167t57 -239q0 -91 -29 -175t-84 -152t-143 -109t-197 -41q-200 0 -321 118t-121 314z M203 387q0 -61 28.5 -120t72 -100t94 -66t94.5 -25q68 0 121.5 28t85.5 74.5t48.5 102.5t16.5 116q0 63 -18.5 113.5t-55 87.5t-72.5 61.5t-88 51.5l-81 43q-130 -77 -188 -165t-58 -202zM274 1284q0 -98 70.5 -190t185.5 -146q104 46 162 120t58 163q0 120 -65 187t-181 67 q-106 0 -168 -55t-62 -146z" />
<glyph unicode="9" d="M72 561q0 119 27.5 211t71.5 148.5t108 92t129.5 49t142.5 13.5q86 0 153.5 -32t108 -82.5t67 -118.5t36.5 -133.5t10 -133.5q0 -143 -19 -265.5t-50.5 -214.5t-78.5 -167.5t-98 -127.5t-113.5 -91.5t-120.5 -62.5t-124.5 -37.5t-119 -20t-110.5 -6.5l-12 70 q273 38 418.5 155.5t197.5 370.5q-126 -76 -247 -76q-164 0 -270.5 128t-106.5 331zM248 616q0 -71 6 -125.5t24.5 -110t49 -91t83.5 -58t124 -22.5q113 0 176 53q18 132 18 303q0 26 -1 50.5t-7 66t-15.5 76t-28.5 72.5t-45 64.5t-66 44t-89 17.5q-97 0 -163 -86.5 t-66 -253.5z" />
<glyph unicode=":" horiz-adv-x="491" d="M129 172q0 25 36 78t71 53q34 0 80 -75.5t46 -104.5q0 -34 -49.5 -88.5t-85.5 -54.5q-28 0 -63 84.5t-35 107.5zM129 874q0 25 36 78.5t71 53.5q34 0 80 -76t46 -105q0 -34 -49.5 -88.5t-85.5 -54.5q-28 0 -63 84.5t-35 107.5z" />
<glyph unicode=";" horiz-adv-x="491" d="M129 180q0 3 17.5 32.5t42.5 60t42 30.5q33 0 82 -77.5t49 -127.5q0 -49 -40.5 -130.5t-86.5 -141t-65 -59.5q-5 0 -18 11t-13 21q0 8 20.5 35t41 67t20.5 79q0 35 -23 74.5t-46 72.5t-23 53zM129 874q0 25 36 78.5t71 53.5q34 0 80 -76t46 -105q0 -34 -49.5 -88.5 t-85.5 -54.5q-28 0 -63 84.5t-35 107.5z" />
<glyph unicode="&#x3c;" d="M-6 506l29 143l942 420l24 -22l-24 -125l-787 -351l787 -350l24 -125l-24 -22z" />
<glyph unicode="=" d="M8 352l29 135h913l25 -22l-29 -113h-938zM8 672l29 135h913l25 -23l-29 -112h-938z" />
<glyph unicode="&#x3e;" d="M-6 96l24 125l787 350l-787 351l-24 125l24 22l971 -432l-28 -143l-943 -420z" />
<glyph unicode="?" horiz-adv-x="911" d="M115 172q0 26 35.5 78.5t70.5 52.5q34 0 80.5 -75.5t46.5 -104.5q0 -34 -49.5 -88.5t-85.5 -54.5q-28 0 -63 84.5t-35 107.5zM143 1364q0 49 17.5 74t71 38t159.5 13q74 0 141.5 -25.5t112.5 -61t80 -75t50.5 -65t17.5 -33.5q26 -133 26 -236q0 -89 -18.5 -160t-59 -127 t-111 -86t-167.5 -30q-92 0 -170 55q-21 -200 -29 -244l-67 13l-23 426q125 -107 221 -107q143 0 203.5 70t60.5 207q0 64 -18 190q-13 90 -53 126t-121 36q-65 0 -111.5 -9t-71.5 -20t-41.5 -34t-21 -37t-10 -45t-8.5 -43h-51q-9 185 -9 190z" />
<glyph unicode="@" horiz-adv-x="1884" d="M41 487q0 165 42 312.5t116 259t173.5 201.5t214.5 147t238 87t246 30q122 0 234.5 -28.5t210.5 -89t170 -147t113.5 -209t41.5 -268.5q0 -155 -83.5 -347t-204 -326t-218.5 -134q-28 0 -51 9t-46.5 32.5t-41 71t-27.5 117.5q-88 -85 -197 -158.5t-165 -73.5 q-15 0 -37.5 7.5t-55 24.5t-63.5 51t-58.5 80t-44 119t-16.5 161q0 129 51.5 253.5t126.5 209.5t157.5 137.5t146.5 52.5q48 0 124.5 -18.5t127.5 -38.5l71 63l45 -18q-27 -70 -44 -377t-17 -422q0 -158 59 -158q35 0 83.5 60t92.5 151.5t74.5 215.5t30.5 239 q0 156 -57.5 280t-153 199.5t-211.5 114.5t-242 39q-119 0 -223.5 -34t-181 -91.5t-139.5 -135.5t-104.5 -163.5t-69.5 -177.5t-40 -175.5t-12 -160.5q0 -124 28.5 -236t91 -212.5t154 -173.5t226 -115.5t299.5 -42.5q126 0 340 47l16 -60q-70 -28 -200.5 -56t-212.5 -28 q-182 0 -335.5 49.5t-261 135t-183.5 200.5t-112 246t-36 272zM680 461q0 -68 31 -144.5t77 -127t86 -50.5q74 0 156.5 50t145.5 130q7 80 16.5 268t9.5 212q-141 141 -262 141q-120 0 -190 -133t-70 -346z" />
<glyph unicode="A" horiz-adv-x="1546" d="M0 0v74q34 3 54 7.5t43 19.5t38 34.5t38 62.5t44.5 94t56.5 138l426 1065q15 10 68 18.5t72 8.5q524 -1296 538 -1325q16 -27 27 -42.5t30.5 -34.5t46.5 -30t64 -16v-74h-585v70q182 15 182 90q0 56 -43 153l-39 90q-30 70 -43 107h-592q-38 -84 -82.5 -201t-44.5 -139 q0 -24 15 -41t45 -26.5t57 -14t67 -8.5v-80h-483zM455 598h536l-272 674z" />
<glyph unicode="B" horiz-adv-x="1329" d="M59 0v76q46 3 73.5 6.5t56 13t42 28t13.5 46.5q0 674 -15 1184q-1 46 -31 60.5t-110 19.5l-29 2v75q110 -8 283 -8q185 0 289 10.5t125 10.5h41q107 0 188 -26t124.5 -64t71 -89t35 -90.5t7.5 -80.5q0 -87 -30.5 -153t-77 -106t-120.5 -77l-61 -31q342 -115 342 -371 q0 -121 -70 -225t-183 -163.5t-237 -59.5h-43q-59 0 -161 8l-66 4q-110 8 -174 8q-173 0 -283 -8zM444 287q0 -31 3.5 -53.5t14 -41t23 -30.5t36.5 -21t48.5 -14t65.5 -7.5t80 -3.5t100 -1q38 0 79.5 20.5t79 58t61.5 100.5t24 140q0 150 -96.5 230.5t-251.5 80.5 q-185 0 -262 -12q-5 -291 -5 -446zM449 831q143 13 256 13q36 0 86 -4q58 17 100.5 48.5t65 72t32.5 81t10 84.5q0 68 -21 123t-50 86t-63 52t-57.5 28.5t-35.5 7.5q-225 0 -291 -24l-24 -23q-6 -286 -8 -545z" />
<glyph unicode="C" horiz-adv-x="1382" d="M86 750q0 252 72 421q18 42 58 93.5t100 107.5t146.5 99t178.5 55q103 14 240 14q112 0 218.5 -16.5t153.5 -42.5l23 -23q0 -14 -8.5 -173.5t-10.5 -186.5h-71q-7 24 -24 80t-30.5 98.5t-13.5 44.5q-12 39 -33 53q-150 39 -305 39q-101 0 -175 -14.5t-129 -49.5t-90 -85 t-56.5 -128t-30 -171.5t-8.5 -223.5q0 -428 272 -594q117 -69 258 -69q162 0 301 104q7 12 26.5 70.5t33.5 112.5l28 110h76q-8 -84 -8 -407q-280 -103 -508 -103q-121 0 -221 23.5t-187.5 80t-147 145t-94 224.5t-34.5 312z" />
<glyph unicode="D" horiz-adv-x="1589" d="M59 0v76q46 3 73.5 6.5t56 13t42 28t13.5 46.5q0 674 -15 1184q-1 46 -31 60.5t-110 19.5l-29 2v75q110 -8 285 -8q193 0 313 10.5t164 10.5h43q333 0 487 -164.5t154 -521.5q0 -184 -44.5 -333.5t-115 -243.5t-163.5 -157.5t-184 -89.5t-183 -26h-43q-52 0 -203 10 t-225 10q-175 0 -285 -8zM442 287q0 -71 34.5 -106.5t119.5 -50.5t252 -15q79 0 135.5 15t98.5 50t68 71.5t62 100.5q82 147 82 420q0 335 -132.5 492t-416.5 157q-196 0 -264 -22l-22 -23q-5 -144 -11 -560.5t-6 -528.5z" />
<glyph unicode="E" horiz-adv-x="1310" d="M59 0v76q46 3 73.5 6.5t56 13t42 28t13.5 46.5q8 264 8 676q0 308 -8 508q-1 46 -31.5 60.5t-108.5 19.5l-28 2v75q110 -8 282 -8q164 0 256 6l539 2l25 -22q-4 -17 -29 -187t-27 -192h-69q-7 41 -25 129.5t-20 91.5q-11 38 -33 53q-34 8 -76 13q-49 6 -258 6 q-93 0 -130 -14t-38 -56q-4 -111 -8 -487q82 0 273 4t231 6l-21 -151h-35q-37 27 -131.5 38.5t-203.5 12.5t-115 2q-4 -303 -4 -588q0 -49 74 -64.5t268 -15.5q56 0 128 6.5t87 18.5q52 45 104 250l29 110h76q-5 -54 -12 -249.5t-7 -225.5h-1147z" />
<glyph unicode="F" horiz-adv-x="1155" d="M59 0v76q36 2 58.5 4.5t49 8.5t41.5 15.5t25.5 26t10.5 39.5q0 2 0.5 42.5t1.5 108.5t2 151t1.5 188.5t0.5 201.5q0 284 -6 492q-1 46 -31.5 60.5t-108.5 19.5l-30 2v75q114 -8 284 -8q162 0 256 6l488 2l24 -22q-4 -17 -28.5 -186.5t-26.5 -192.5h-70q-7 41 -25 129.5 t-20 91.5q-12 39 -32 53q-30 7 -76 13q-49 6 -207 6q-93 0 -131 -14t-39 -56q-8 -453 -8 -487q83 0 274.5 4t231.5 6l-21 -151h-37q-36 27 -131 38.5t-203 12.5t-114 2q-6 -455 -6 -588q0 -27 12.5 -45t41 -27.5t55.5 -13.5t75 -8l78 -6v-70h-660z" />
<glyph unicode="G" horiz-adv-x="1550" d="M86 750q0 252 72 421q18 42 58 93.5t100 107.5t146.5 99t178.5 55q103 14 240 14q121 0 266 -17t188 -42l25 -23q0 -14 -8.5 -173.5t-10.5 -186.5h-71q-50 175 -74 235q-42 27 -160 53.5t-254 26.5q-101 0 -175.5 -14.5t-130 -49.5t-90.5 -85t-56.5 -128t-30 -171.5 t-8.5 -223.5q0 -108 15.5 -197.5t56 -174t105 -143t169 -93.5t240.5 -35q109 0 180 21t121 67v285q0 24 -13 40t-41 24.5t-51 11.5t-63 6l-52 4l-2 70q124 -9 320 -9q124 0 248 9v-76l-29 -2q-70 -4 -97.5 -19t-27.5 -45v-381l-22 -22q-124 -44 -287 -80.5t-291 -36.5 q-121 0 -221 23.5t-187.5 80t-147 145t-94 224.5t-34.5 312z" />
<glyph unicode="H" horiz-adv-x="1738" d="M59 0v76q46 3 73.5 6.5t56 13t42 28t13.5 46.5q0 674 -15 1184q-1 46 -31 60.5t-110 19.5l-29 2v75h568v-75l-29 -2q-80 -5 -110 -19.5t-31 -60.5q-7 -365 -8 -508h841q-3 250 -10 508q-1 46 -31 60.5t-110 19.5l-29 2v75h567v-75l-28 -2q-80 -5 -110.5 -19.5 t-31.5 -60.5q-4 -130 -7.5 -430.5t-5 -506.5t-1.5 -247q0 -27 12.5 -45t41 -27.5t55.5 -13.5t75 -8v-76h-567v76q36 2 59 4.5t49 8.5t41 15.5t25 26t10 39.5q0 283 -4 588h-844q-1 -125 -2 -275t-1.5 -227.5t-0.5 -85.5q0 -27 12.5 -45t41.5 -27.5t56 -13.5t75 -8v-76h-568z " />
<glyph unicode="I" horiz-adv-x="686" d="M59 0v76q46 3 73.5 6.5t56 13t42 28t13.5 46.5q0 674 -15 1184q-1 46 -31 60.5t-110 19.5l-29 2v75h568v-75l-29 -2q-80 -5 -110 -19.5t-31 -60.5q-4 -131 -8 -429.5t-5.5 -508.5t-1.5 -246q0 -27 12.5 -45t41.5 -27.5t56 -13.5t75 -8v-76h-568z" />
<glyph unicode="J" horiz-adv-x="638" d="M0 -332l55 43q98 88 127 182.5t29 294.5q0 1037 -12 1166q-3 47 -32 61t-108 19l-28 2v75h567v-75l-31 -2q-79 -5 -109 -19.5t-30 -60.5q-4 -347 -14.5 -821t-18.5 -517q-20 -123 -92.5 -214.5t-171.5 -149.5l-90 -49z" />
<glyph unicode="K" horiz-adv-x="1372" d="M66 1436v75h380l25 -22q-4 -84 -8 -334t-5 -313q48 1 139.5 86t174 188t145 189.5t62.5 95.5q0 16 -23.5 23.5t-97.5 11.5v75h475v-75q-85 -6 -112 -17t-82 -57q-97 -84 -328 -346l-131 -152q43 -61 112 -156.5t221 -296t232 -288.5l127 -49v-74q-198 0 -311 -8l-537 749 q-11 15 -30 15h-36q0 -138 1.5 -358t1.5 -228q0 -27 12.5 -45t41 -27.5t55.5 -13.5t75 -8v-76h-567v76q36 2 59 4.5t49 8.5t41 15.5t25 26t10 39.5q0 12 -4.5 242.5t-11 526t-10.5 415.5q-1 46 -31.5 60.5t-108.5 19.5z" />
<glyph unicode="L" horiz-adv-x="1142" d="M59 0v76q49 4 76.5 8t55.5 13.5t40.5 27t12.5 45.5q0 690 -15 1184q-3 46 -32.5 60.5t-108.5 19.5l-29 2v75h594v-75l-28 -2q-43 -3 -67.5 -6t-50.5 -11t-37.5 -23.5t-12.5 -39.5q-4 -131 -8 -429.5t-5.5 -508.5t-1.5 -246q0 -80 201 -80h43q219 0 248 25q52 45 104 250 l29 110h76q-5 -54 -12 -249.5t-7 -225.5h-1065z" />
<glyph unicode="M" horiz-adv-x="1951" d="M4 1436v75h467l18 -55l459 -1139q253 548 465 1139l19 55h466v-75q-113 -6 -167 -19.5t-54 -54.5q0 -21 39 -1124l2 -58q2 -27 9.5 -44.5t17.5 -28.5t32.5 -17t43.5 -8.5t63 -5.5v-76h-567v76q36 2 59 4.5t49 8.5t41 15.5t25 26t10 39.5q-5 403 -45 1053 q-279 -613 -514 -1223h-80l-524 1231q-31 -546 -31 -1061q0 -24 15 -41t44 -26.5t56 -14t67 -8.5v-80h-483v74q93 10 127.5 53.5t42.5 142.5q20 316 32.5 589.5t14.5 388.5l2 116q0 21 -16 35t-52 21t-66.5 10t-86.5 6z" />
<glyph unicode="N" horiz-adv-x="1591" d="M31 1436v75h387q24 -73 878 -1185q-2 24 -5 262.5t-3 367.5q0 70 -8 342q-1 26 -2.5 40t-7 30.5t-17 25t-32 17.5t-51 14t-74.5 9v77h495v-73q-135 -12 -166 -56q-3 -4 -6 -20t-5 -30l-1 -13q-4 -127 -7.5 -372t-4.5 -417.5t-2 -193.5l4 -336h-121q-24 37 -39 59.5 t-48 67t-63 82.5t-105.5 135t-152.5 194.5t-228.5 290t-309.5 394.5v-629q10 -391 10 -424q0 -24 14 -41t41.5 -26.5t54 -14t66.5 -8.5v-80h-483v74q78 7 121.5 26t48.5 64q14 104 14 758v65v92t-0.5 101t-1 90t-0.5 68.5v27.5q-4 23 -21.5 38.5t-66.5 20.5z" />
<glyph unicode="O" horiz-adv-x="1525" d="M86 733q0 318 131 516q54 80 139 140.5t172.5 90.5t158.5 44t122 14q320 0 476.5 -182t156.5 -514q0 -379 -146 -592q-52 -76 -131.5 -134t-161 -87.5t-149.5 -43.5t-119 -14q-134 0 -242.5 38.5t-183.5 106.5t-125.5 164t-74 209t-23.5 244zM295 776q0 -20 0.5 -35.5 t3 -54t7 -71t15 -79t24 -86t36 -85t50.5 -82t67 -71t86 -58.5q60 -30 111.5 -39t133.5 -9q93 0 164.5 32t126 102.5t83 190.5t28.5 288q0 146 -22 261.5t-57.5 190t-87 126t-104 76.5t-114.5 34q-18 4 -111 4q-77 0 -142 -20.5t-121 -67.5t-94.5 -119t-60.5 -180.5 t-22 -247.5z" />
<glyph unicode="P" horiz-adv-x="1304" d="M59 0v76q45 3 72 6.5t56 13t42.5 28t14.5 46.5q6 210 6 692q0 284 -6 492q-1 46 -31.5 60.5t-110.5 19.5l-28 2v75q114 -8 284 -8q184 0 287.5 10.5t124.5 10.5h41q98 0 173.5 -24.5t121.5 -63.5t75.5 -95t40.5 -112t11 -121q0 -51 -19.5 -109t-63.5 -119t-106 -110 t-157 -80t-207 -31q-146 0 -219 33q-1 -115 -2 -247t-1.5 -200t-0.5 -75q0 -27 18 -45t56 -27.5t68 -13.5t83 -8l78 -6v-70h-701zM463 823q28 -25 89.5 -43t145.5 -18q61 0 110 12t80.5 30.5t54.5 47t34.5 54t18 60t7.5 56.5t1 51q0 44 -1.5 71t-9.5 71t-23.5 73.5t-47 62 t-76.5 54.5q-41 18 -60 18q-219 0 -290 -24l-23 -23q-6 -167 -10 -553z" />
<glyph unicode="Q" horiz-adv-x="1525" d="M86 733q0 318 131 516q54 80 139 140.5t172.5 90.5t158.5 44t122 14q320 0 476.5 -182t156.5 -514q0 -327 -99 -515.5t-296 -279.5q188 -206 292 -280q-19 -26 -49.5 -78t-42.5 -80l-28 -8l-320 395q-92 -25 -164 -25q-134 0 -242.5 38.5t-183.5 106.5t-125.5 164 t-74 209t-23.5 244zM295 776q0 -20 0.5 -35.5t3 -54t7 -71t15 -79t24 -86t36 -85t50.5 -82t67 -71t86 -58.5q60 -30 111.5 -39t133.5 -9q93 0 164.5 32t126 102.5t83 190.5t28.5 288q0 146 -22 261.5t-57.5 190t-87 126t-104 76.5t-114.5 34q-18 4 -111 4q-77 0 -142 -20.5 t-121 -67.5t-94.5 -119t-60.5 -180.5t-22 -247.5z" />
<glyph unicode="R" horiz-adv-x="1370" d="M66 0v76q36 2 59 4.5t49 8.5t41 15.5t25 26t10 39.5q0 708 -14 1184q-1 46 -31.5 60.5t-110.5 19.5l-28 2v75q114 -8 284 -8q169 0 282 10.5t130 10.5h41q89 0 165.5 -42.5t125.5 -127.5t49 -195q0 -71 -15.5 -124.5t-51.5 -98.5t-76 -77.5t-107 -76.5q214 -421 364 -659 l113 -49v-74q-184 0 -297 -8l-358 739h-58q-123 0 -202 27q-6 -434 -6 -588q0 -27 12.5 -45t41 -27.5t55.5 -13.5t75 -8v-76h-567zM457 868q55 -34 215 -34q73 0 126.5 29t80.5 76t39 94.5t12 96.5q0 68 -18 123t-43 86t-54 52t-49 28.5t-31 7.5q-189 0 -250 -26l-20 -23 q-4 -91 -8 -510z" />
<glyph unicode="S" horiz-adv-x="1062" d="M117 1112q0 65 8.5 111.5t32 94.5t70 89.5t118.5 81.5q29 16 53.5 25.5t79 18.5t127.5 9q156 0 303 -78l25 -22q0 -14 -8.5 -174t-10.5 -187h-71q-7 24 -24 80t-30.5 99t-13.5 45q-16 40 -33 53q-22 19 -75.5 36t-122.5 17q-130 0 -197 -47t-67 -168q0 -50 14.5 -90 t42 -67.5t50.5 -43.5t56 -34l312 -162q245 -126 245 -381q0 -107 -27 -171.5t-106 -156.5q-111 -121 -350 -121q-190 0 -399 92q14 196 14 414h76l29 -110q20 -79 33 -115t25.5 -52t39.5 -38q102 -45 231 -45q123 0 182.5 48t59.5 175q0 174 -188 276l-166 82 q-121 63 -158 85t-61 48l-17 19q-102 110 -102 264z" />
<glyph unicode="T" horiz-adv-x="1245" d="M0 1489l23 22h1200l22 -22q-10 -175 -10 -404h-72q-7 27 -24 82t-30.5 98.5t-14.5 45.5q-7 21 -19 45q-14 14 -37 18q-39 7 -110.5 14t-104.5 7q-29 0 -86 -11q-16 -387 -16 -1214q0 -22 14 -39t33.5 -27t53 -16.5t57.5 -9.5t63 -6v-72h-655v72q38 3 62 5.5t57.5 10 t52.5 17t33 26.5t14 39q6 398 6 778q0 313 -4 436q-57 11 -86 11q-33 0 -104.5 -7t-110.5 -14q-23 -4 -37 -18q-9 -18 -18 -45q-1 -2 -15 -45.5t-31 -98.5t-24 -82h-72q0 229 -10 404z" />
<glyph unicode="U" horiz-adv-x="1550" d="M70 1436v75h565v-75q-96 -7 -140 -25t-44 -70q0 -36 1 -229.5t1 -312.5v-164q2 -113 2 -232q0 -37 11.5 -75.5t42.5 -81.5t78 -76t125.5 -54.5t176.5 -21.5q72 0 126 11.5t94.5 33t68 61t45 85.5t27 117.5t13 145.5t3.5 181q0 83 -2 282t-2 330q0 24 -15.5 41.5t-45 27 t-57 14t-67.5 8.5v79h484v-73q-159 -18 -164 -90l-2 -37q-4 -58 -12.5 -405t-8.5 -419q0 -96 -19 -173t-50.5 -130t-81 -92.5t-101 -62t-119 -36t-127.5 -18t-135 -4.5q-88 0 -161.5 19t-124 50t-89.5 73.5t-62 85.5t-37.5 89.5t-19.5 82t-5 67.5q-4 870 -6 893 q-7 64 -38.5 81.5t-127.5 23.5z" />
<glyph unicode="V" horiz-adv-x="1536" d="M0 1436v75h565v-75q-81 -6 -116 -23t-35 -49v-8q0 -36 166.5 -515.5t220.5 -592.5q103 229 262.5 640.5t159.5 448.5q0 32 -12 48.5t-48.5 28t-109.5 18.5v79h483v-73q-83 -9 -120.5 -55t-112.5 -224l-482 -1159h-131l-530 1307q-27 65 -59 95t-101 34z" />
<glyph unicode="W" horiz-adv-x="2048" d="M0 1436v75h532v-75q-106 -8 -140 -21.5t-34 -58.5q0 -35 113 -480.5t147 -533.5q59 149 189.5 567.5t130.5 452.5q0 41 -35 55t-121 19v75h568v-75q-30 -2 -49.5 -4.5t-43 -9.5t-35.5 -20.5t-12 -33.5q0 -17 48 -210.5t118.5 -443t118.5 -372.5q88 265 186.5 615.5 t98.5 388.5q0 43 -38 60.5t-132 25.5v79h438v-73q-48 -4 -72.5 -23t-42.5 -63q-391 -1282 -405 -1352h-152q-35 167 -164 570t-198 595q-54 -143 -204 -606.5t-167 -558.5h-160q-10 89 -338 1221l-26 86q-15 64 -39.5 94.5t-79.5 34.5z" />
<glyph unicode="X" horiz-adv-x="1323" d="M0 0v74q54 5 147 94q34 31 186.5 235.5t246.5 337.5l-420 633q-41 57 -125 62v75h567v-75q-78 -6 -108.5 -17.5t-30.5 -36.5q0 -49 260 -473q119 162 206 298.5t87 164.5q0 29 -27.5 40t-128.5 20v79h459v-73q-87 -11 -195 -148l-348 -469l271 -448q47 -78 72.5 -120 t52.5 -80t40 -52.5t34 -26.5t35 -14t42 -4v-76h-526v76q153 11 153 59q0 11 -22 53l-295 465q-122 -165 -232 -327t-110 -185q0 -27 42 -39.5t126 -21.5v-80h-459z" />
<glyph unicode="Y" horiz-adv-x="1329" d="M0 1436v75h565v-75q-99 -7 -134.5 -22t-35.5 -46q0 -43 310 -532q102 146 222 330t120 212t-33 38.5t-111 15.5v79h426v-73q-77 -9 -112 -52l-459 -634q-6 -135 -6 -447q0 -151 10 -168q18 -33 71 -46t134 -19v-72h-635v72q31 2 51.5 4.5t48.5 7t46 11.5t35 17t25.5 24.5 t8.5 33.5q0 150 -2 291t-4 207l-2 65q-46 82 -408 606q-2 4 -6.5 10t-18.5 22t-28 28.5t-35.5 23.5t-42.5 13z" />
<glyph unicode="Z" horiz-adv-x="1353" d="M43 23l913 1374q-102 10 -215 10q-32 0 -360 -8q-31 -1 -57 -34.5t-33 -57.5q-1 -2 -15 -45.5t-31 -98.5t-24 -82h-69q-1 21 -5 204t-4 204l25 22h1087l25 -22q-860 -1211 -934 -1366q123 -21 234 -21q264 0 357.5 6t109.5 21q55 47 104 236l20 75h82q-5 -79 -10.5 -246 t-5.5 -194h-1169z" />
<glyph unicode="[" horiz-adv-x="604" d="M205 -395v2005l22 22q16 -4 140 -4q135 0 237 4v-67q-79 -2 -121 -6.5t-63.5 -21t-25.5 -34.5t-5 -59v-1675q1 -28 2.5 -41.5t8.5 -29.5t19.5 -22.5t37.5 -13.5t59.5 -9t87.5 -3v-70q-153 6 -237 6q-41 0 -73.5 -1t-49 -2t-17.5 -1z" />
<glyph unicode="\" d="M-41 1632h125l940 -1919h-129z" />
<glyph unicode="]" horiz-adv-x="604" d="M0 -350q53 1 87.5 3t59.5 9t37.5 13.5t19.5 22.5t8.5 29.5t2.5 41.5v1675q-1 41 -5 59t-25.5 34.5t-63.5 21t-121 6.5v67q102 -4 238 -4q123 0 139 4l22 -22v-2005l-22 -23q-1 0 -17 1t-48.5 2t-73.5 1q-85 0 -238 -6v70z" />
<glyph unicode="^" d="M-6 559l420 944l143 27l432 -971l-22 -24l-125 24l-350 787l-351 -787l-125 -24z" />
<glyph unicode="_" horiz-adv-x="1024" d="M0 -88l1024 2v-115h-1024v113z" />
<glyph unicode="`" horiz-adv-x="1024" d="M295 1464q3 36 39.5 64t79.5 28q202 -251 315 -368l-37 -43q-79 52 -203.5 153.5t-193.5 165.5z" />
<glyph unicode="a" horiz-adv-x="978" d="M82 248q0 57 9 102.5t28.5 79.5t42.5 59.5t59 44.5t69 31.5t82 24t88 18.5t97.5 18t101.5 21q0 27 1.5 70t1.5 53q0 49 -21 85.5t-55.5 55t-71 27t-76.5 8.5q-37 0 -63 -4.5t-47 -19.5t-34 -30t-27 -49.5t-23 -64t-25 -86.5l-84 8q1 7 2 36t3 53t11 60.5t24 65.5 t44.5 60.5t69.5 52.5t102 35t139 14q65 0 116.5 -10.5t84.5 -26t57 -40.5t35.5 -46.5t18 -53t7.5 -50t1 -47.5q0 -156 -4 -333t-4 -208q0 -38 23 -82t46 -78.5t23 -48.5q0 -11 -19 -16q-143 -47 -157 -47q-20 0 -37.5 28.5t-32.5 73t-16 45.5q-30 -19 -75.5 -50.5t-63 -42.5 t-49.5 -28t-56 -22t-61 -9.5t-84 -4.5q-45 0 -80.5 15.5t-58 41.5t-36.5 61.5t-20 72t-6 77.5zM266 268q0 -78 37 -114.5t100 -36.5q56 0 122 28t122 74q15 13 15 174q0 82 -3 174q-39 -13 -107 -35q-77 -25 -108.5 -36t-74 -30t-55 -32.5t-28 -39t-18 -53.5t-2.5 -73z" />
<glyph unicode="b" horiz-adv-x="1095" d="M20 1583q88 8 160 20.5t106.5 20.5t41.5 8q34 0 34 -30v-89l-8 -567q151 83 215 108t101 25q93 0 161 -24.5t108 -64.5t63.5 -103.5t31.5 -129.5t8 -155q0 -141 -19.5 -238.5t-68.5 -170.5q-23 -31 -94.5 -96.5t-142.5 -96.5q-68 -31 -199 -31q-81 0 -192 36t-150 91 q-1 251 -1 557.5t-1.5 451t-5.5 226.5q-7 122 -9 134q-7 36 -35 45q-21 6 -99 6zM350 436q0 -130 4.5 -176.5t16.5 -58.5q25 -31 104.5 -60.5t155.5 -29.5q81 0 124 25.5t70 113.5q12 38 20.5 122t11.5 140t3 74q0 85 -19 150t-47.5 102.5t-67.5 61t-74 31t-72 7.5 q-28 0 -47.5 -3t-65 -21.5t-115.5 -55.5v-135q-2 -123 -2 -287z" />
<glyph unicode="c" horiz-adv-x="903" d="M61 492q0 157 27 292q6 30 32 63.5t40 45.5q71 65 126.5 104.5t102 55t72.5 19t71 3.5q80 0 166.5 -16.5t112.5 -26.5q-6 -61 -6 -307h-62q-20 90 -32 131q-10 36 -88.5 57t-173.5 21q-122 0 -163.5 -78.5t-41.5 -298.5q0 -79 6 -138t23.5 -116.5t47.5 -93.5t80.5 -58 t120.5 -22q61 0 131 36.5t110 72.5l40 36l43 -41q-11 -12 -42 -48t-47 -53t-46.5 -47t-55 -46t-57.5 -34t-68.5 -26t-74.5 -8q-106 0 -222 62q-49 44 -79.5 91t-63.5 122q-29 127 -29 246z" />
<glyph unicode="d" horiz-adv-x="1079" d="M61 496q0 81 6.5 147.5t14.5 111t25 82.5t28.5 58t35 41.5t34 28t35.5 22.5l69 41q87 53 205 53q94 0 217 -28q0 78 -2 179.5t-2 127.5q0 44 -1 65.5t-5.5 42.5t-12 28t-23.5 13t-37 7t-54 2h-10l-4 67q89 8 161 20.5t106.5 20.5t41.5 8q13 0 24 -7.5t11 -24.5 q0 -440 -7.5 -845t-7.5 -493q0 -39 26.5 -86.5t52.5 -82t26 -42.5q0 -6 -17.5 -13.5t-43.5 -15.5t-31 -10q-75 -34 -97 -34q-16 0 -33 34t-32.5 75t-24.5 50q-76 -84 -140 -127t-132 -43q-28 0 -65.5 11.5t-84 35.5t-90 66.5t-80.5 98t-59.5 137.5t-22.5 178zM242 573 q0 -212 80.5 -320t199.5 -108q115 0 211 93q0 358 -3 508.5t-3 158.5q-42 25 -109.5 41.5t-132.5 16.5q-48 0 -80 -6t-65.5 -29t-53 -64t-32 -114t-12.5 -177z" />
<glyph unicode="e" horiz-adv-x="956" d="M61 504q0 98 15 187t30 126q34 76 158.5 165t233.5 89q64 0 117 -11t91.5 -30t68.5 -46.5t49.5 -57t33 -66t20.5 -68.5t10.5 -69t3.5 -64t1 -57v-27q-64 -40 -215 -40h-420q0 -44 1 -68t3 -64.5t6.5 -64t13.5 -56.5t22.5 -52.5t33.5 -41.5t46 -33.5t61.5 -19.5t78.5 -8 q178 0 326 145l45 -47q-9 -9 -35 -36t-36.5 -37.5t-35.5 -34.5t-38.5 -35t-38 -30t-41.5 -28t-41.5 -22t-46 -18.5t-47.5 -10t-52 -4.5q-99 0 -175.5 33t-122 84.5t-74.5 124.5t-39.5 143.5t-10.5 149.5zM262 627h117q147 0 218 6.5t105 30.5q0 33 -4 65t-18 71.5t-36 68.5 t-62.5 49t-92.5 20q-59 0 -99.5 -12.5t-65.5 -34.5t-39 -62.5t-18.5 -86t-4.5 -115.5z" />
<glyph unicode="f" horiz-adv-x="747" d="M61 918v69l183 31q0 92 17 179t54 167t89.5 139.5t130 95t170.5 35.5q99 0 132 -54t33 -177q0 -12 -1 -37t-1 -39l-88 -2q-22 120 -56 177t-73 57q-48 0 -95 -73.5t-77 -189.5t-30 -233v-31h274l-6 -114h-268q-9 -484 -9 -719q0 -21 0.5 -34.5t5 -25.5t8 -19t14.5 -14 t20 -10t30 -7.5t38 -7t50.5 -8t61.5 -10.5v-63h-574v70q105 16 125 25q31 14 36 55q3 20 3 59q0 143 -12 709h-185z" />
<glyph unicode="g" horiz-adv-x="972" d="M20 -170q0 24 3.5 44t18.5 50.5t41.5 57.5t78 59.5t121.5 62.5q-78 11 -120 39t-42 72q0 16 4.5 29.5t20 35t55.5 42.5t102 40q-104 46 -149 98.5t-64 151.5q-2 8 -2 39q0 113 35 189q12 24 48 60.5t89.5 76.5t129.5 68t151 28q124 0 221 -82q97 4 199 27l12 -12v-86 h-162q16 -23 28.5 -90.5t12.5 -118.5q0 -86 -27 -147.5t-92 -121.5q-104 -61 -258 -94q-168 -43 -168 -117q0 -29 25 -49t63 -20h244q26 0 93 -5.5t93 -15.5q51 -21 99.5 -83t48.5 -134q0 -44 -16.5 -88.5t-56.5 -91t-99 -82t-152.5 -58t-208.5 -22.5q-52 0 -104.5 6.5 t-111 24t-102.5 44t-73 71.5t-29 102zM197 -111q0 -93 89.5 -160t188.5 -67q151 0 226 67.5t75 176.5q0 68 -55.5 111.5t-183.5 43.5q-162 0 -251 -39.5t-89 -132.5zM276 664q0 -94 53.5 -153.5t153.5 -59.5t137 53.5t37 200.5q0 92 -18.5 140t-59 70t-122.5 31q-10 2 -29 2 q-75 0 -113.5 -62.5t-38.5 -221.5z" />
<glyph unicode="h" horiz-adv-x="1157" d="M45 1583q88 8 160 20.5t106 20.5t41 8q35 0 35 -30q0 -9 -1 -66.5t-1 -67.5l-2 -528q114 63 220.5 98t172.5 35q59 0 101 -18.5t67.5 -50.5t39.5 -86.5t19 -114t5 -146.5q0 -56 -3.5 -201t-3.5 -233q0 -98 15.5 -121t89.5 -32v-70h-389v70q27 6 41.5 10.5t28 15t18.5 20 t9 34t4.5 48t0.5 70.5v367q0 65 -2 106t-8 76t-16 53.5t-28.5 32t-42.5 17.5t-60 4q-63 0 -149.5 -27t-129.5 -55q-6 -239 -6 -594q0 -37 0.5 -55.5t2.5 -41.5t7 -32.5t12.5 -21t21 -15.5t30.5 -7.5t43 -4.5v-70h-418v70q67 4 94 24.5t27 61.5q0 192 1 479t1 479 q0 263 -14 325q-12 57 -50 70q-22 7 -86 7z" />
<glyph unicode="i" horiz-adv-x="577" d="M61 0v70q105 7 131.5 26.5t26.5 81.5v426q0 91 -1 145.5t-6.5 98.5t-11.5 63.5t-22 32.5t-31 15t-45 2h-30l-4 67q88 8 160 20.5t106 20.5t41 8q35 0 35 -33q0 -24 -3 -133.5t-5.5 -310.5t-2.5 -446q0 -41 33.5 -60t104.5 -24v-70h-476zM182 1362q0 24 34 85.5t77 61.5 q30 0 75.5 -38t45.5 -87q0 -50 -42.5 -97.5t-78.5 -47.5q-28 0 -69.5 50t-41.5 73z" />
<glyph unicode="j" horiz-adv-x="516" d="M-10 -379q12 15 34 42q29 36 42 51.5t33 48.5t27 48.5t20 59.5t16 72t9.5 95t7 120.5t3 157t2.5 195v243.5q0 93 -9 135.5t-32.5 58t-74.5 15.5h-31l-4 67q89 8 160.5 20.5t105.5 20.5t41 8q35 0 35 -32v-315t-4 -252t-6.5 -206.5t-15 -158.5t-20.5 -128.5t-33.5 -97 t-43.5 -84.5t-59.5 -70t-74 -73t-93.5 -76zM143 1362q0 24 35 85.5t78 61.5q30 0 75.5 -38t45.5 -87q0 -50 -43 -97.5t-78 -47.5q-30 0 -71.5 50t-41.5 73z" />
<glyph unicode="k" horiz-adv-x="1177" d="M47 1583q88 8 159.5 20.5t105 20.5t40.5 8q37 0 37 -30v-13v-45v-31l-2 -909q44 0 122.5 64.5t140 146t61.5 125.5q0 35 -43 35q-18 0 -28.5 11t-10.5 26q0 29 39 32q71 -6 198 -6q124 0 195 6q18 0 27.5 -9.5t9.5 -22.5t-7.5 -22t-16 -12t-19 -5.5t-11.5 -3.5 q-52 -20 -117 -63.5t-121.5 -91.5t-105.5 -93t-78 -74l-28 -29l559 -557q25 -25 25 -41q0 -8 -6 -13t-12 -6l-7 -1q-156 0 -252 -8q-309 366 -370.5 431.5t-110.5 81.5q-22 7 -37 13q2 -29 2 -74q0 -66 -2 -146t-2 -99q0 -20 0.5 -34t3.5 -26t4 -19t8.5 -14t11 -10t17.5 -7 t21 -5.5l28 -6t33 -7.5v-70h-442v70q12 3 32 7q31 6 43.5 9t28.5 13.5t20.5 21t10 36.5t6 56.5t0.5 83.5q0 203 2 465t2 328q0 110 -2 177.5t-9 117.5t-15.5 73.5t-27.5 37t-39 16.5t-55 4h-12z" />
<glyph unicode="l" horiz-adv-x="581" d="M53 0v70q15 3 38 7t33 6t25.5 5.5t21 8t15 11.5t12 18t7 24t5.5 33.5t2 43.5t1 56v379q0 210 -6 673l-2 99q-1 51 -24.5 65t-90.5 14h-27l-4 68q88 10 160.5 23.5t106 21.5t41.5 8q34 0 34 -30q5 -210 5 -422q0 -250 -10.5 -536t-10.5 -451q0 -28 1 -45t9 -31t14 -20.5 t28 -12.5t37 -8t55 -7q5 -1 8 -1v-70h-484z" />
<glyph unicode="m" horiz-adv-x="1708" d="M66 1010q82 9 168 39t108 30q28 0 37.5 -22.5t9.5 -85.5v-29q8 4 48.5 27.5t51.5 29t44.5 23.5t49.5 23.5t42.5 15.5t47.5 13t42 3q61 0 119 -31t137 -114q199 145 342 145q52 0 93.5 -19t66.5 -46.5t42 -62t23 -63t6 -50.5q0 -145 -2 -321t-2 -214q0 -114 10 -160 t27.5 -56.5t69.5 -13.5q9 -1 14 -1v-70h-418v70q77 4 97 31.5t20 125.5q0 27 -1 190t-1 312q0 34 -0.5 52.5t-4 43t-11 37.5t-20.5 27.5t-33 21t-48.5 11t-66.5 4.5q-53 0 -205 -78q-2 -266 -2 -547q0 -36 1 -62.5t1.5 -49t4.5 -37.5t5.5 -27t9 -19.5t11 -12.5t15.5 -8.5 t18 -5t23 -4.5t27 -5v-70h-417v70q75 4 92.5 31t17.5 118q0 237 1 397t1 181q0 65 -37 97t-145 32q-40 0 -102.5 -25t-100.5 -51q-14 -466 -14 -555q0 -40 0.5 -67t3 -50t4 -36t8 -24.5t10.5 -16.5t15 -10t19 -7t25 -6t30 -8v-70h-418v70q67 4 93 24.5t26 61.5 q0 287 -0.5 423.5t-5 215.5t-8.5 91t-16 22l-3 3q-3 3 -7.5 5.5t-8 4t-10.5 3t-10.5 2.5t-12.5 2t-13 1.5t-15 1.5t-15 1z" />
<glyph unicode="n" horiz-adv-x="1153" d="M66 1010q84 9 169.5 39t106.5 30q28 0 38.5 -22.5t10.5 -85.5v-29q236 133 385 133q51 0 90.5 -15.5t63.5 -39.5t39.5 -57t21.5 -64t6 -63v-684q0 -44 19.5 -61t89.5 -21v-70h-418v70q78 6 97.5 24t19.5 66v649q0 39 -16 64t-46 35.5t-56 14t-62 3.5q-39 0 -113 -24 t-115 -52q-2 -121 -6 -253.5t-6 -213.5t-2 -129q0 -45 1.5 -74.5t8.5 -50t13 -31t23.5 -17t31 -8t43.5 -3.5v-70h-430v70q27 4 40.5 6.5t30 8.5t23 11t15 19.5t10.5 27.5t5 40t3 53v71q0 25 -6 286.5t-9 270.5q-3 11 -6 19.5t-8 15t-8 11t-11 8t-11.5 5.5t-14.5 3.5t-15.5 2 t-19.5 2t-20 1.5z" />
<glyph unicode="o" horiz-adv-x="1058" d="M61 532q0 96 26.5 182t57.5 136q55 85 192 156t228 71q67 0 128.5 -15.5t119.5 -52t100 -90t67.5 -135t25.5 -182.5q0 -136 -20.5 -225t-70.5 -164q-12 -15 -28 -34.5t-50.5 -57.5t-76.5 -71t-80 -50q-77 -35 -186 -35q-41 0 -79 5.5t-82.5 21.5t-82 42t-73.5 70 t-61 101.5t-40 141.5t-15 185zM256 549q0 -127 23 -214.5t69 -135.5t103.5 -68t136.5 -20q61 0 90 10q141 56 141 426q0 173 -45.5 254t-159.5 117q-58 14 -110 14q-50 0 -75.5 -2.5t-64.5 -22t-58 -58t-34.5 -114t-15.5 -186.5z" />
<glyph unicode="p" horiz-adv-x="1134" d="M61 1028q89 8 161 20.5t106 20.5t41 8q14 0 25.5 -8t11.5 -25q0 -2 -3.5 -52.5t-3.5 -61.5q15 7 80 50t129 70t129 27q12 0 30.5 -2.5t53 -13.5t67 -28.5t68.5 -52.5t63 -81.5t44.5 -119.5t17.5 -161q0 -295 -121.5 -462.5t-312.5 -167.5q-46 0 -83.5 5t-63 15.5 t-44 20.5t-31 25.5t-18.5 24t-12.5 23t-7.5 15.5q-1 -63 -4.5 -176.5t-3.5 -141.5q1 -60 11.5 -87t33 -37.5t78.5 -20.5v-70h-418v66q66 7 92.5 28t26.5 60q-2 193 -2 1112q0 39 -3 57.5t-17.5 32.5t-39.5 17.5t-75 3.5zM387 463q0 -215 43.5 -296t177.5 -81q52 0 99.5 26 t88.5 79.5t65 147.5t24 218q0 190 -63.5 276.5t-172.5 86.5q-103 0 -252 -76q-1 -60 -5.5 -189.5t-4.5 -191.5z" />
<glyph unicode="q" horiz-adv-x="1103" d="M61 471q0 340 189 467q119 80 183.5 108.5t125.5 28.5q35 0 92.5 -11t155 -22.5t227.5 -13.5v-70q-42 -18 -59 -30t-28 -37.5t-15 -75.5q-19 -225 -19 -872q0 -102 1.5 -149.5t16 -78.5t28 -37.5t55.5 -17.5q13 -4 20 -6v-70h-418v66q28 5 43 9.5t32 14t24 24t14.5 40 t9.5 61.5t2 88q0 87 -6 234q-199 -146 -332 -146q-87 0 -154.5 42.5t-107 114t-60 158t-20.5 181.5zM258 483q0 -98 20.5 -170.5t56 -112.5t77 -58.5t90.5 -18.5q101 0 188 63q45 32 45 125v512v33q-1 25 -27 42.5t-65 25t-68 10t-55 2.5q-262 0 -262 -453z" />
<glyph unicode="r" horiz-adv-x="815" d="M51 0v70q91 10 113 21q33 16 40 74q5 37 5 140v68q0 381 -11 460q-9 74 -42 90q-14 7 -74 12q-3 1 -6 1l-4 78q82 9 167.5 39t108.5 30q27 0 37 -23t10 -85l2 -78q179 174 285 174q76 0 104.5 -19t28.5 -67q0 -21 -4.5 -50.5t-14 -83t-14.5 -87.5h-73q-6 81 -34.5 117.5 t-70.5 36.5q-19 0 -51.5 -11t-68.5 -31t-61.5 -56t-25.5 -79q0 -58 -1 -288.5t-1 -266.5q0 -64 36 -82.5t172 -37.5q3 0 5 -0.5t5.5 -1t6 -1t5.5 -0.5v-63h-574z" />
<glyph unicode="s" horiz-adv-x="792" d="M92 733q0 99 35 152q73 118 138.5 154t195.5 36q76 0 157 -35q22 -9 33.5 -15.5t24 -28.5t12.5 -56q0 -6 -1.5 -31.5t-3 -71t-1.5 -98.5h-76q-2 26 -17.5 78t-33.5 78q-41 59 -154 59q-44 0 -77.5 -11t-51 -26t-28 -35t-13 -34.5t-2.5 -28.5q0 -48 27.5 -82.5t72 -54.5 t98 -38t107 -41.5t98 -55.5t72 -89t27.5 -134q0 -108 -31 -160q-33 -52 -58.5 -81.5t-72.5 -66.5q-31 -23 -95.5 -37t-98.5 -14q-116 0 -180.5 21.5t-81.5 52.5q-17 27 -17 70q0 89 1.5 133t8.5 70.5t16.5 32t29.5 5.5q24 0 35 -19t12 -45t9.5 -62.5t27.5 -61.5 q48 -66 170 -66q91 0 141.5 41t50.5 113q0 45 -21.5 78t-57.5 52t-81.5 37t-92.5 31.5t-92.5 37t-81.5 52.5t-57.5 79t-21.5 116z" />
<glyph unicode="t" horiz-adv-x="686" d="M20 918v61l179 35v188q24 7 44.5 13t35 10.5t26 8t19 6t13 4.5t8.5 3t5 2t2.5 1.5t1.5 0.5h2q31 0 31 -30q0 -8 -2 -49t-2 -76v-64h260l-6 -114h-254q0 -114 -3 -283t-3 -223q0 -159 19 -228t77 -69q50 0 150 59l43 -41q-81 -84 -148.5 -124t-109.5 -40q-56 0 -94 16 t-62 45t-37 82.5t-17.5 115.5t-4.5 157q0 59 3 236t3 297h-179z" />
<glyph unicode="u" horiz-adv-x="1138" d="M45 1020q79 9 147 22.5t102.5 23t41.5 9.5q37 0 37 -31q0 -124 -4 -335.5t-4 -262.5q0 -152 20 -208q14 -41 52.5 -68t70.5 -27q42 0 110.5 15t98.5 30q59 30 71.5 48t12.5 67q0 137 2 296t2 189q0 53 -2.5 83t-5.5 49.5t-14.5 27t-21.5 9t-34 1.5h-65l-5 68q89 9 161 21 t106 20t41 8q36 0 36 -31q0 -259 -8 -502.5t-8 -281.5t23 -82t46 -78.5t23 -48.5q0 -11 -18 -16q-144 -47 -158 -47q-20 0 -37.5 28.5t-32.5 73t-16 45.5q-85 -60 -172.5 -97.5t-132.5 -46.5t-74 -9q-74 0 -142 58.5t-91 147.5q-7 25 -14 107t-7 147v195q0 64 -0.5 103 t-3 76.5t-5.5 56.5t-10.5 36t-14.5 23.5t-22.5 11.5t-29.5 5.5t-38 0.5h-9z" />
<glyph unicode="v" horiz-adv-x="1007" d="M0 1026q79 10 148 24.5t103 23.5t42 9q35 0 35 -30q0 -29 54 -238.5t108 -404.5l53 -195q217 573 217 698q0 30 -11.5 43t-25.5 13t-25.5 9t-11.5 32q0 37 70 37q18 0 48 -2.5t40 -2.5q34 0 77.5 4.5t57.5 4.5q29 0 29 -31q0 -6 -2.5 -11.5t-10 -17t-19 -29t-31 -55.5 t-44 -88.5t-61 -135.5t-78.5 -189q-30 -74 -58 -145.5t-44.5 -117t-33 -89t-25.5 -67.5t-20 -46.5t-18 -32t-18.5 -17t-22 -9t-28.5 -1.5q-49 0 -69.5 38.5t-67.5 200.5q-23 80 -38 130q-17 55 -62.5 219t-75.5 248t-60 117q-9 10 -18 16.5t-22 9.5t-21 4.5t-27 3t-29 2.5z " />
<glyph unicode="w" horiz-adv-x="1660" d="M0 1026q78 10 146.5 24.5t102.5 23.5t42 9q37 0 37 -30q0 -29 54 -238.5t108 -404.5l53 -195q215 571 215 694q0 24 -16.5 59.5t-16.5 45.5q0 12 12.5 20t46.5 12.5t93 4.5q17 0 30.5 -1.5t23 -2t16 -5t10 -5.5t6.5 -7.5t3.5 -7.5t1.5 -10l1 -8q17 -82 69 -279t95 -353 l43 -157q217 573 217 698q0 34 -11.5 48t-25.5 12.5t-25.5 6t-11.5 30.5q0 37 70 38q18 0 48 -3t40 -3q34 0 87.5 4.5t67.5 4.5q29 0 29 -31q0 -7 -7.5 -15.5t-27.5 -36t-47.5 -74.5t-76.5 -152t-107 -248q-30 -74 -58 -145.5t-44.5 -117t-33 -89t-25.5 -67.5t-20.5 -46.5 t-18.5 -32t-18.5 -17t-22 -9t-28.5 -1.5q-48 0 -68 37t-66 196q-8 26 -12.5 42t-12.5 43t-15 51q-21 66 -56 193t-48 171l-88 -208q-27 -67 -52 -132.5t-41.5 -109t-31.5 -85.5t-25.5 -67.5t-20 -49.5t-17.5 -36t-15.5 -22.5t-17.5 -14.5t-20.5 -6t-26.5 -2q-48 0 -67.5 36 t-64.5 189q-26 88 -43 144t-49.5 172t-51.5 182t-46.5 135t-50.5 95q-8 10 -17 16.5t-21.5 9.5t-20.5 4.5t-27 3t-29 2.5z" />
<glyph unicode="x" horiz-adv-x="927" d="M-10 0v70q44 4 59 12q36 20 101 109t239 354q-43 68 -86 138.5t-63 105t-44.5 71t-36.5 50t-32.5 27t-38.5 17.5t-49 7l-4 67q72 9 141.5 29t85.5 20q10 0 19 -2.5t18.5 -10.5t17.5 -17t20.5 -27.5t22.5 -36.5t28 -50.5t34 -62.5t42.5 -78.5t51.5 -93.5q14 19 34.5 47.5 t33 46.5t28.5 40.5t26 37t19 29.5t13 24.5t4 14.5q0 25 -12 36t-26 11t-26 7.5t-12 25.5q0 5 2.5 12t14.5 15t30 8q11 0 48 -2t69 -2q31 0 64 2t55 2q41 0 41 -43q0 -14 -10 -21.5t-25.5 -10.5t-39 -19.5t-44.5 -45.5q-45 -56 -120 -162.5t-101 -146.5q166 -260 242 -386 t90 -158t14 -56q0 -41 -35 -41q-63 0 -165.5 119t-270.5 377q-25 -39 -55 -84.5t-47.5 -72t-37 -57t-30 -48.5t-20 -36t-13.5 -29.5t-4 -20.5q0 -18 17.5 -26t58.5 -15v-70h-336z" />
<glyph unicode="y" horiz-adv-x="1007" d="M0 1026q78 10 147 24.5t103.5 23.5t42.5 9q35 0 35 -30q0 -29 54 -238.5t108 -404.5l53 -195q217 578 217 698q0 30 -11.5 43t-25.5 13t-25.5 9t-11.5 32q0 37 70 37q17 0 47.5 -2.5t40.5 -2.5q34 0 77.5 4.5t57.5 4.5q29 0 29 -31q0 -6 -2.5 -11.5t-10 -17t-19 -29 t-31.5 -55.5t-44.5 -88.5t-61.5 -135.5t-79 -189q-188 -466 -296 -810q-26 -81 -35 -95.5t-34 -14.5q-135 0 -135 59q0 25 23 67t50 81.5t50 90t23 89.5q0 76 -117.5 490t-167.5 471q-9 10 -18 16.5t-22 9.5t-21 4.5t-27 3t-29 2.5z" />
<glyph unicode="z" horiz-adv-x="1056" d="M68 53l628 883q0 8 -209 8h-10h-61t-48.5 -3t-40 -4.5t-30.5 -11.5t-25.5 -17t-19.5 -27.5t-17 -35.5t-14.5 -49t-16 -61t-16.5 -78h-77q4 98 7 225q3 120 8.5 140t35.5 20q8 0 87 -3t230 -3q102 0 211 2t167 4l58 2q60 0 60 -43q0 -25 -32 -70.5t-97 -123.5l-53 -66 q-146 -181 -249 -334.5t-135 -216.5t-32 -75q0 -11 26 -11q126 0 213.5 5.5t134 12.5t74 22t34 24.5t14.5 30.5q3 7 4 10q9 23 15.5 48t14.5 60.5t13 55.5l86 -6q-25 -235 -25 -396q0 -6 1 -16.5t1 -15.5l-90 6q0 16 -1.5 25.5t-10.5 17t-20 11t-37 6t-54.5 3t-79.5 0.5 q-120 0 -600 -8z" />
<glyph unicode="{" horiz-adv-x="794" d="M102 578l13 65q128 31 213 59q18 26 24.5 154.5t7 269.5t18.5 275t56 172q153 37 342 67l19 -67q-112 -24 -213 -57q-19 -28 -24.5 -156.5t-10.5 -302.5t-21 -271q-11 -65 -88 -118.5t-123 -59.5q45 -4 122.5 -57.5t88.5 -118.5q16 -97 21 -271t10.5 -302t24.5 -156 q84 -30 213 -61l-19 -68q-229 40 -342 68q-38 38 -56.5 173t-20 278t-7.5 272t-22 153q-103 34 -226 60z" />
<glyph unicode="|" horiz-adv-x="491" d="M166 -416v2048h160v-2048h-160z" />
<glyph unicode="}" horiz-adv-x="794" d="M0 -358q129 31 213 61q19 28 24.5 156t10 302t20.5 271q11 65 88.5 118.5t122.5 57.5q-46 6 -123 59.5t-88 118.5q-16 97 -20.5 271t-10 302.5t-24.5 156.5q-101 33 -213 57l18 67q189 -30 342 -67q38 -38 56 -172t18.5 -275t7.5 -269.5t25 -154.5q113 -37 225 -61 l-12 -66q-112 -24 -213 -57q-16 -24 -22.5 -153t-7.5 -272t-20 -278t-57 -173q-113 -28 -342 -68z" />
<glyph unicode="~" d="M4 586q30 40 55.5 68.5t61.5 58t78 44.5t90 15q52 0 115 -20t110 -44.5t100.5 -44.5t90.5 -20q39 0 74.5 25t88.5 96l109 -68q-122 -188 -283 -188q-52 0 -113.5 20t-108.5 44.5t-104 44.5t-102 20q-18 0 -33 -5t-47.5 -34t-72.5 -82z" />
<glyph unicode="&#xa1;" horiz-adv-x="491" d="M115 2q77 959 110 1131l68 -13l10 -172q45 -818 45 -934q-146 -20 -209 -34zM141 1411q0 34 49.5 88.5t85.5 54.5q28 0 63.5 -84.5t35.5 -107.5q0 -25 -36 -78t-71 -53q-34 0 -80.5 75.5t-46.5 104.5z" />
<glyph unicode="&#xa2;" d="M100 492q0 157 27 292q6 30 32 63.5t40 45.5q173 158 288 178v184h84v-180q80 0 166.5 -16.5t112.5 -26.5q-6 -61 -6 -307h-62q-20 90 -32 131q-7 28 -57.5 47t-121.5 27v-801q60 3 127.5 39t105.5 71l38 35l43 -41q-7 -7 -49 -55t-60 -65.5t-56 -51t-73.5 -52 t-75.5 -29.5v-166h-84v157q-97 0 -215 62q-49 44 -79.5 91t-63.5 122q-29 127 -29 246zM283 557q0 -88 8 -152.5t29 -123.5t63 -96t104 -50v799q-122 0 -163 -78t-41 -299z" />
<glyph unicode="&#xa3;" horiz-adv-x="999" d="M51 68q25 5 38 9t32.5 15.5t30 28.5t23.5 48.5t19.5 76t12.5 109t8 149.5h-121v82h121q2 16 4.5 48.5t4 44.5l4.5 36t7 35.5t10.5 30t16 33.5t21.5 32q177 239 372 239q13 0 26 -1t26 -3t23 -4t24 -6t21.5 -6t21.5 -7t18.5 -6.5t18.5 -7t16 -6.5l-31 -247h-47 q-18 80 -49 153q-65 45 -133 45q-66 0 -110.5 -51.5t-53.5 -155.5q-11 -94 -14 -196h350v-82h-356q-12 -257 -119 -381q120 -6 207 -6q159 0 264 18l18 41l33 131h59q0 -27 3 -153.5t6 -153.5q-405 6 -547 6q-163 0 -256 -6z" />
<glyph unicode="&#xa6;" horiz-adv-x="491" d="M166 410h160v-826h-160v826zM166 807v825h160v-825h-160z" />
<glyph unicode="&#xa7;" d="M102 565q0 108 34.5 165.5t125.5 121.5l105 72q-102 58 -155.5 138.5t-53.5 174.5q0 51 12.5 94t35.5 76t42 53t45 41q107 88 270 88q58 0 133 -23t117 -55q-10 -72 -10 -294h-76q-2 29 -19 98t-34 94q-21 30 -74 49t-106 19q-83 0 -140 -47.5t-57 -122.5t57.5 -137.5 t200.5 -139.5l119 -63q46 -25 77.5 -48t64 -58t49 -82t16.5 -105q0 -79 -16 -135t-52 -95t-77 -63.5t-107 -50.5l73 -45q38 -24 49 -34t31 -36q68 -100 68 -217q0 -198 -164 -334q-99 -80 -237 -80q-93 0 -162.5 17t-122.5 67q12 86 12 299h72q6 -52 12.5 -87t22 -72.5 t39 -59t62.5 -35.5t93 -14q41 0 80 12t74.5 36t57.5 67.5t22 99.5q0 28 -13 82q-46 67 -95 106t-189 117q-175 96 -243.5 171.5t-68.5 174.5zM274 621q0 -62 39 -103.5t111 -79.5l115 -59q5 0 23 7.5t45.5 26.5t52.5 44.5t43 67t18 89.5q0 40 -26 80.5t-63.5 69.5t-75 52.5 t-63.5 35.5l-26 12q-58 -17 -97.5 -43t-59.5 -59.5t-28 -66.5t-8 -74z" />
<glyph unicode="&#xa8;" horiz-adv-x="1024" d="M199 1321q0 11 12.5 44t40.5 68t59 35q29 0 74 -38t45 -87q0 -50 -42.5 -98.5t-76.5 -48.5q-30 0 -71 51t-41 74zM582 1321q0 24 34.5 85.5t77.5 61.5q30 0 75.5 -38t45.5 -87q0 -50 -43 -98.5t-78 -48.5q-30 0 -71 51t-41 74z" />
<glyph unicode="&#xa9;" horiz-adv-x="1589" d="M74 678q0 158 59.5 295.5t158.5 231t228 147t268 53.5q204 0 371.5 -97t262 -261.5t94.5 -360.5q0 -154 -58.5 -289.5t-156.5 -230t-228.5 -149t-271.5 -54.5q-126 0 -241 38.5t-202 106.5t-152 157.5t-98.5 195.5t-33.5 217zM174 680q0 -119 45.5 -230.5t126 -197 t199.5 -137.5t256 -52q165 0 306.5 81t225.5 225t84 317q0 132 -51.5 248.5t-137.5 197.5t-199.5 128t-235.5 47q-120 0 -232.5 -46t-198 -126.5t-137 -199t-51.5 -255.5zM449 653q0 136 20 238q13 44 18 49q68 67 120 107t94 56t65.5 19.5t62.5 3.5q63 0 133.5 -13 t92.5 -21q-4 -33 -4 -250h-52l-24 108q-8 29 -72 45.5t-141 16.5q-99 0 -132.5 -62.5t-33.5 -242.5q0 -121 18 -195q22 -60 66 -111q57 -47 123 -47q50 0 111.5 31t97.5 61l37 31l34 -33l-184 -200q-97 -15 -106 -15q-113 0 -205 54q-69 61 -117 172q-22 105 -22 198z" />
<glyph unicode="&#xaa;" horiz-adv-x="634" d="M82 1047q0 36 8 64t20.5 47.5t35 34.5t43.5 23.5t53.5 16.5t58 12t64 10.5t65.5 12.5v94q0 22 -58 46t-102 24q-22 0 -41.5 -15t-30.5 -36t-19.5 -42t-11.5 -36l-3 -15h-51l14 150q53 30 117.5 47.5t101.5 17.5q29 0 78 -15.5t86 -37.5q31 -19 37 -45l-4 -393 q3 -30 30.5 -46t61.5 -16v-30q-31 0 -70 -5t-63 -9l-23 -5l-41 86l-137 -82l-47 -6q-101 4 -136.5 38t-35.5 110zM193 1059q0 -84 94 -84q21 0 67 14l78 47l-2 187q-83 -16 -201 -66q-36 -24 -36 -98z" />
<glyph unicode="&#xab;" horiz-adv-x="1071" d="M57 502q81 57 246 203t209 190l66 -33l-314 -366l309 -363l-59 -31q-115 113 -243 227t-214 173zM461 502q81 57 245 202.5t209 190.5l66 -33l-315 -366l311 -363l-59 -31q-115 113 -243 227t-214 173z" />
<glyph unicode="&#xad;" horiz-adv-x="552" d="M35 512l28 135h433l22 -22l-24 -113h-459z" />
<glyph unicode="&#xae;" horiz-adv-x="1280" d="M102 1055q0 144 73 268.5t198.5 198t271.5 73.5q124 0 226 -43t168.5 -117t102.5 -172t36 -208q0 -109 -42.5 -209t-114 -172.5t-170 -116t-206.5 -43.5q-130 0 -234.5 43t-171 117t-102 171.5t-35.5 209.5zM199 1055q0 -199 123.5 -333t322.5 -134q126 0 229.5 65 t159.5 171.5t56 230.5q0 125 -54 230.5t-157 170t-234 64.5q-124 0 -227 -64.5t-161 -171t-58 -229.5zM367 762v37q27 1 41.5 3.5t26 10.5t11.5 23q0 296 -6 460q0 18 -13.5 23.5t-47.5 7.5l-12 2v37q25 -2 125 -2q75 0 124 4t56 4h18q60 0 105 -40.5t45 -106.5 q0 -53 -26 -84t-85 -66q96 -170 162 -264l49 -18v-31q-80 0 -131 -4l-158 297h-24q-59 0 -90 10q-2 -115 -2 -229q0 -21 19.5 -28t61.5 -9v-37q-25 2 -124 2q-100 0 -125 -2zM539 1114q22 -14 94 -14q42 0 68.5 19.5t35 43.5t8.5 51q0 33 -11.5 57t-27.5 34.5t-28 15 t-19 4.5q-83 0 -108 -10l-10 -8q0 -14 -1 -81t-1 -112z" />
<glyph unicode="&#xaf;" horiz-adv-x="1024" d="M256 1233l27 125h485l-25 -125h-487z" />
<glyph unicode="&#xb0;" horiz-adv-x="634" d="M82 1159q0 120 55 189q32 42 110 78t128 36q95 0 162 -54t67 -165q0 -143 -61 -213q-12 -16 -53 -53t-80 -53q-49 -19 -105 -19q-30 0 -58 5.5t-59 22t-53.5 43t-37.5 74t-15 109.5zM188 1169q0 -106 44.5 -148t127.5 -42q30 0 50 4q45 17 67.5 81.5t22.5 160.5 q0 76 -35.5 120t-128.5 44q-36 0 -58.5 -6.5t-45 -27.5t-33.5 -67t-11 -119z" />
<glyph unicode="&#xb1;" d="M23 0l28 135h891l25 -22l-27 -113h-917zM23 563l28 135h375v328l115 27l22 -25l-2 -330h381l25 -22l-27 -113h-377l-2 -323l-135 -29v352h-403z" />
<glyph unicode="&#xb4;" horiz-adv-x="1024" d="M295 1186q113 117 315 368q43 0 79.5 -28t39.5 -64q-69 -64 -193.5 -165.5t-203.5 -153.5z" />
<glyph unicode="&#xb6;" d="M61 1126q0 79 16.5 140t40 101t68.5 68t82 42.5t102 22t107 9t117 2.5h264v-1859h-74v1788h-159v-1788h-72v1061h-59q-41 0 -91.5 10.5t-112.5 40t-111.5 73.5t-83.5 119.5t-34 169.5z" />
<glyph unicode="&#xb7;" horiz-adv-x="512" d="M129 618q0 25 36 78.5t71 53.5q34 0 80 -76t46 -105q0 -34 -49.5 -88.5t-85.5 -54.5q-28 0 -63 84.5t-35 107.5z" />
<glyph unicode="&#xb8;" horiz-adv-x="1024" d="M360 -344q97 0 149 23.5t52 56.5q0 29 -40.5 52t-108.5 26l-25 22l64 180l49 -4l-21 -100q80 -16 132.5 -53.5t52.5 -102.5q0 -37 -8.5 -64t-28 -45.5t-37 -29.5t-47.5 -25q-48 -8 -178 -14z" />
<glyph unicode="&#xba;" horiz-adv-x="716" d="M82 1202q0 100 51 174q32 47 115 86t139 39q51 0 96.5 -14.5t84.5 -44t62 -81.5t23 -120q0 -141 -55 -215q-10 -16 -54.5 -58t-86.5 -59q-47 -20 -115 -20q-35 0 -66.5 6.5t-68.5 26.5t-63.5 53t-44 91.5t-17.5 135.5zM201 1210q0 -134 50.5 -186.5t147.5 -52.5 q44 0 56 4q86 31 86 235q0 95 -28 139.5t-97 63.5q-24 8 -66 8q-22 0 -33 -0.5t-29.5 -4.5t-28.5 -11.5t-23 -23t-19.5 -37.5t-11 -56t-4.5 -78z" />
<glyph unicode="&#xbb;" horiz-adv-x="1071" d="M92 862l66 33q33 -35 202 -185t250 -208q-156 -109 -456 -400l-60 31l312 363zM496 862l63 33q41 -41 208 -188.5t247 -204.5q-160 -112 -457 -400l-59 31l311 363z" />
<glyph unicode="&#xbf;" horiz-adv-x="911" d="M115 475q0 89 18.5 160t59 127t111 86.5t167.5 30.5q90 0 170 -56q21 200 29 244l67 -12l23 -426q-124 106 -221 106q-143 0 -204 -69.5t-61 -206.5q0 -58 19 -191q13 -90 53 -126t121 -36q65 0 111.5 9t71.5 20t41.5 34t21 37.5t10 45.5t8.5 43h51q9 -185 9 -191 q0 -49 -17.5 -74t-71 -37.5t-159.5 -12.5q-74 0 -141.5 25.5t-112.5 61t-80 75t-50.5 65t-17.5 33.5q-26 133 -26 235zM586 1346q0 34 49.5 88.5t85.5 54.5q28 0 63 -85t35 -108q0 -26 -35.5 -78.5t-70.5 -52.5q-34 0 -80.5 76t-46.5 105z" />
<glyph unicode="&#xc0;" horiz-adv-x="1546" d="M0 0v74q34 3 54 7.5t43 19.5t38 34.5t38 62.5t44.5 94t56.5 138l426 1065q15 10 68 18.5t72 8.5q524 -1296 538 -1325q16 -27 27 -42.5t30.5 -34.5t46.5 -30t64 -16v-74h-585v70q182 15 182 90q0 56 -43 153l-39 90q-30 70 -43 107h-592q-38 -84 -82.5 -201t-44.5 -139 q0 -24 15 -41t45 -26.5t57 -14t67 -8.5v-80h-483zM444 1890v8q0 34 30.5 65.5t70.5 37.5q213 -191 373 -307l-27 -49q-87 38 -228.5 116.5t-218.5 128.5zM455 598h536l-272 674z" />
<glyph unicode="&#xc1;" horiz-adv-x="1546" d="M0 0v74q34 3 54 7.5t43 19.5t38 34.5t38 62.5t44.5 94t56.5 138l426 1065q15 10 68 18.5t72 8.5q524 -1296 538 -1325q16 -27 27 -42.5t30.5 -34.5t46.5 -30t64 -16v-74h-585v70q182 15 182 90q0 56 -43 153l-39 90q-30 70 -43 107h-592q-38 -84 -82.5 -201t-44.5 -139 q0 -24 15 -41t45 -26.5t57 -14t67 -8.5v-80h-483zM455 598h536l-272 674zM625 1694q155 112 372 307q40 -6 70.5 -37.5t30.5 -65.5v-8q-77 -50 -218.5 -128.5t-228.5 -116.5z" />
<glyph unicode="&#xc2;" horiz-adv-x="1546" d="M0 0v74q34 3 54 7.5t43 19.5t38 34.5t38 62.5t44.5 94t56.5 138l426 1065q15 10 68 18.5t72 8.5q524 -1296 538 -1325q16 -27 27 -42.5t30.5 -34.5t46.5 -30t64 -16v-74h-585v70q182 15 182 90q0 56 -43 153l-39 90q-30 70 -43 107h-592q-38 -84 -82.5 -201t-44.5 -139 q0 -24 15 -41t45 -26.5t57 -14t67 -8.5v-80h-483zM455 598h536l-272 674zM539 1661q102 106 209 252h81q56 -83 96 -131.5t105 -118.5l-39 -35l-211 139l-205 -143z" />
<glyph unicode="&#xc3;" horiz-adv-x="1546" d="M0 0v74q34 3 54 7.5t43 19.5t38 34.5t38 62.5t44.5 94t56.5 138l426 1065q15 10 68 18.5t72 8.5q524 -1296 538 -1325q16 -27 27 -42.5t30.5 -34.5t46.5 -30t64 -16v-74h-585v70q182 15 182 90q0 56 -43 153l-39 90q-30 70 -43 107h-592q-38 -84 -82.5 -201t-44.5 -139 q0 -24 15 -41t45 -26.5t57 -14t67 -8.5v-80h-483zM446 1700q34 49 116 126t110 77q25 0 59.5 -19t88 -47t110.5 -43q64 18 137 88l31 -24q-34 -50 -105.5 -118.5t-99.5 -68.5q-34 0 -126 54.5t-132 54.5q-34 -10 -80 -42.5t-82 -66.5zM455 598h536l-272 674z" />
<glyph unicode="&#xc4;" horiz-adv-x="1546" d="M0 0v74q34 3 54 7.5t43 19.5t38 34.5t38 62.5t44.5 94t56.5 138l426 1065q15 10 68 18.5t72 8.5q524 -1296 538 -1325q16 -27 27 -42.5t30.5 -34.5t46.5 -30t64 -16v-74h-585v70q182 15 182 90q0 56 -43 153l-39 90q-30 70 -43 107h-592q-38 -84 -82.5 -201t-44.5 -139 q0 -24 15 -41t45 -26.5t57 -14t67 -8.5v-80h-483zM455 598h536l-272 674zM473 1788q0 7 8 29t22 49.5t36.5 48t46.5 20.5q29 0 74 -38t45 -87q0 -50 -42.5 -98.5t-76.5 -48.5q-30 0 -71.5 51t-41.5 74zM856 1788q0 24 35 85.5t78 61.5q30 0 75.5 -38t45.5 -87 q0 -50 -43 -98.5t-78 -48.5q-30 0 -71.5 51t-41.5 74z" />
<glyph unicode="&#xc5;" horiz-adv-x="1546" d="M0 0v74q34 3 54 7.5t43 19.5t38 34.5t38 62.5t44.5 94t56.5 138l426 1065q15 10 68 18.5t72 8.5q524 -1296 538 -1325q16 -27 27 -42.5t30.5 -34.5t46.5 -30t64 -16v-74h-585v70q182 15 182 90q0 56 -43 153l-39 90q-30 70 -43 107h-592q-38 -84 -82.5 -201t-44.5 -139 q0 -24 15 -41t45 -26.5t57 -14t67 -8.5v-80h-483zM455 598h536l-272 674zM598 1810q0 58 31 105q21 28 70.5 52t82.5 24q66 0 113 -39t47 -119q0 -83 -33 -129l-5 -6l-10.5 -10.5t-14.5 -14t-17.5 -15.5t-19 -13.5t-19.5 -10.5q-30 -12 -67 -12q-28 0 -52 7t-50 25.5 t-41 58.5t-15 97zM684 1815q0 -70 26 -97.5t76 -27.5q23 0 29 2q45 18 45 120q0 50 -14.5 73t-50.5 34q-20 4 -35 4q-20 0 -29.5 -2t-22.5 -11t-18.5 -32.5t-5.5 -62.5z" />
<glyph unicode="&#xc6;" horiz-adv-x="2115" d="M0 0v74q52 5 80 14.5t67 48t80.5 103t114.5 190.5l539 948q8 11 8 23q0 9 -4 14.5t-17.5 9t-25 4.5t-39.5 3q-19 1 -29 2l-29 2v75q110 -8 418 -8q163 0 258 6l537 2l24 -22q-4 -25 -29 -192.5t-26 -186.5h-69q-3 24 -14 78.5t-20 98t-9 44.5q-16 40 -33 53q-42 8 -66 11 t-90.5 5.5t-179.5 2.5q-92 0 -129.5 -14t-38.5 -56q-4 -111 -8 -487q83 0 274.5 4t231.5 6l-21 -151h-37q-37 27 -131.5 38.5t-203.5 12.5t-115 2q-1 -125 -2 -275t-1.5 -227.5t-0.5 -85.5q0 -49 74 -64.5t268 -15.5q56 0 128 6.5t87 18.5q24 21 47 72.5t32 83.5t25 94 l29 110h76q-4 -55 -11.5 -254t-7.5 -221h-1145v76q45 3 72 6.5t56 13t42.5 28t14.5 46.5q0 4 4 340h-545q-28 -41 -108 -181t-80 -171q0 -20 12.5 -34.5t37.5 -23t49.5 -12.5t61.5 -8v-80h-483zM553 598h502q2 78 2 248q0 283 -6 508q-2 15 -11.5 28t-21.5 13q-16 0 -25 -21 z" />
<glyph unicode="&#xc7;" horiz-adv-x="1490" d="M150 750q0 254 71 421q18 42 58 93.5t100.5 107.5t147 99t178.5 55q103 14 239 14q112 0 219.5 -16.5t153.5 -42.5l24 -23q0 -70 -20 -360h-70q-42 150 -63 207t-39 69q-150 39 -303 39q-101 0 -175.5 -14.5t-130 -49.5t-91 -85t-57 -128t-30 -171.5t-8.5 -223.5 q0 -427 275 -594q111 -69 256 -69q166 0 301 104q7 12 26 70t33 113l29 110h76q-9 -95 -9 -407q-247 -89 -446 -101h-129l-10 -55q79 -16 131.5 -53.5t52.5 -102.5q0 -37 -9 -63.5t-29 -45.5t-36.5 -29.5t-46.5 -25.5q-48 -8 -178 -14l-6 78q97 0 149 23.5t52 56.5 q0 29 -41 52t-109 26l-24 22l49 137q-127 14 -226 62t-176 138t-118 235.5t-41 341.5z" />
<glyph unicode="&#xc8;" horiz-adv-x="1310" d="M59 0v76q46 3 73.5 6.5t56 13t42 28t13.5 46.5q8 264 8 676q0 308 -8 508q-1 46 -31.5 60.5t-108.5 19.5l-28 2v75q110 -8 282 -8q164 0 256 6l539 2l25 -22q-4 -17 -29 -187t-27 -192h-69q-7 41 -25 129.5t-20 91.5q-11 38 -33 53q-34 8 -76 13q-49 6 -258 6 q-93 0 -130 -14t-38 -56q-4 -111 -8 -487q82 0 273 4t231 6l-21 -151h-35q-37 27 -131.5 38.5t-203.5 12.5t-115 2q-4 -303 -4 -588q0 -49 74 -64.5t268 -15.5q56 0 128 6.5t87 18.5q52 45 104 250l29 110h76q-5 -54 -12 -249.5t-7 -225.5h-1147zM358 1890v8q0 34 30.5 65.5 t70.5 37.5q217 -195 372 -307l-26 -49q-87 38 -228.5 116.5t-218.5 128.5z" />
<glyph unicode="&#xc9;" horiz-adv-x="1310" d="M59 0v76q46 3 73.5 6.5t56 13t42 28t13.5 46.5q8 264 8 676q0 308 -8 508q-1 46 -31.5 60.5t-108.5 19.5l-28 2v75q110 -8 282 -8q164 0 256 6l539 2l25 -22q-4 -17 -29 -187t-27 -192h-69q-7 41 -25 129.5t-20 91.5q-11 38 -33 53q-34 8 -76 13q-49 6 -258 6 q-93 0 -130 -14t-38 -56q-4 -111 -8 -487q82 0 273 4t231 6l-21 -151h-35q-37 27 -131.5 38.5t-203.5 12.5t-115 2q-4 -303 -4 -588q0 -49 74 -64.5t268 -15.5q56 0 128 6.5t87 18.5q52 45 104 250l29 110h76q-5 -54 -12 -249.5t-7 -225.5h-1147zM539 1694q155 112 372 307 q40 -6 70.5 -37.5t30.5 -65.5v-8q-77 -50 -218.5 -128.5t-228.5 -116.5z" />
<glyph unicode="&#xca;" horiz-adv-x="1310" d="M59 0v76q46 3 73.5 6.5t56 13t42 28t13.5 46.5q8 264 8 676q0 308 -8 508q-1 46 -31.5 60.5t-108.5 19.5l-28 2v75q110 -8 282 -8q164 0 256 6l539 2l25 -22q-4 -17 -29 -187t-27 -192h-69q-7 41 -25 129.5t-20 91.5q-11 38 -33 53q-34 8 -76 13q-49 6 -258 6 q-93 0 -130 -14t-38 -56q-4 -111 -8 -487q82 0 273 4t231 6l-21 -151h-35q-37 27 -131.5 38.5t-203.5 12.5t-115 2q-4 -303 -4 -588q0 -49 74 -64.5t268 -15.5q56 0 128 6.5t87 18.5q52 45 104 250l29 110h76q-5 -54 -12 -249.5t-7 -225.5h-1147zM453 1661q102 106 209 252 h81q56 -83 96 -131.5t105 -118.5l-39 -35l-211 139l-205 -143z" />
<glyph unicode="&#xcb;" horiz-adv-x="1310" d="M59 0v76q46 3 73.5 6.5t56 13t42 28t13.5 46.5q8 264 8 676q0 308 -8 508q-1 46 -31.5 60.5t-108.5 19.5l-28 2v75q110 -8 282 -8q164 0 256 6l539 2l25 -22q-4 -17 -29 -187t-27 -192h-69q-7 41 -25 129.5t-20 91.5q-11 38 -33 53q-34 8 -76 13q-49 6 -258 6 q-93 0 -130 -14t-38 -56q-4 -111 -8 -487q82 0 273 4t231 6l-21 -151h-35q-37 27 -131.5 38.5t-203.5 12.5t-115 2q-4 -303 -4 -588q0 -49 74 -64.5t268 -15.5q56 0 128 6.5t87 18.5q52 45 104 250l29 110h76q-5 -54 -12 -249.5t-7 -225.5h-1147zM387 1788q0 7 8 29t22 49.5 t36.5 48t46.5 20.5q29 0 73.5 -38t44.5 -87q0 -50 -42 -98.5t-76 -48.5q-30 0 -71.5 51t-41.5 74zM770 1788q0 24 35 85.5t78 61.5q30 0 75.5 -38t45.5 -87q0 -50 -43 -98.5t-78 -48.5q-30 0 -71.5 51t-41.5 74z" />
<glyph unicode="&#xcc;" horiz-adv-x="686" d="M14 1890v8q0 34 30.5 65.5t70.5 37.5q217 -195 372 -307l-26 -49q-87 38 -228.5 116.5t-218.5 128.5zM59 0v76q46 3 73.5 6.5t56 13t42 28t13.5 46.5q0 674 -15 1184q-1 46 -31 60.5t-110 19.5l-29 2v75h568v-75l-29 -2q-80 -5 -110 -19.5t-31 -60.5q-4 -131 -8 -429.5 t-5.5 -508.5t-1.5 -246q0 -27 12.5 -45t41.5 -27.5t56 -13.5t75 -8v-76h-568z" />
<glyph unicode="&#xcd;" horiz-adv-x="686" d="M59 0v76q46 3 73.5 6.5t56 13t42 28t13.5 46.5q0 674 -15 1184q-1 46 -31 60.5t-110 19.5l-29 2v75h568v-75l-29 -2q-80 -5 -110 -19.5t-31 -60.5q-4 -131 -8 -429.5t-5.5 -508.5t-1.5 -246q0 -27 12.5 -45t41.5 -27.5t56 -13.5t75 -8v-76h-568zM195 1694 q155 112 372 307q40 -6 70.5 -37.5t30.5 -65.5v-8q-77 -50 -218.5 -128.5t-228.5 -116.5z" />
<glyph unicode="&#xce;" horiz-adv-x="686" d="M59 0v76q46 3 73.5 6.5t56 13t42 28t13.5 46.5q0 674 -15 1184q-1 46 -31 60.5t-110 19.5l-29 2v75h568v-75l-29 -2q-80 -5 -110 -19.5t-31 -60.5q-4 -131 -8 -429.5t-5.5 -508.5t-1.5 -246q0 -27 12.5 -45t41.5 -27.5t56 -13.5t75 -8v-76h-568zM109 1661q98 102 208 252 h82q56 -83 96 -131.5t105 -118.5l-39 -35l-211 139l-205 -143z" />
<glyph unicode="&#xcf;" horiz-adv-x="686" d="M43 1788q0 7 8 29t22 49.5t36.5 48t46.5 20.5q29 0 73.5 -38t44.5 -87q0 -50 -42 -98.5t-76 -48.5q-30 0 -71.5 51t-41.5 74zM59 0v76q46 3 73.5 6.5t56 13t42 28t13.5 46.5q0 674 -15 1184q-1 46 -31 60.5t-110 19.5l-29 2v75h568v-75l-29 -2q-80 -5 -110 -19.5 t-31 -60.5q-4 -131 -8 -429.5t-5.5 -508.5t-1.5 -246q0 -27 12.5 -45t41.5 -27.5t56 -13.5t75 -8v-76h-568zM426 1788q0 24 35 85.5t78 61.5q30 0 75 -37.5t45 -87.5t-42.5 -98.5t-77.5 -48.5q-30 0 -71.5 51t-41.5 74z" />
<glyph unicode="&#xd1;" horiz-adv-x="1591" d="M31 1436v75h387q24 -73 878 -1185q-2 24 -5 262.5t-3 367.5q0 70 -8 342q-1 26 -2.5 40t-7 30.5t-17 25t-32 17.5t-51 14t-74.5 9v77h495v-73q-135 -12 -166 -56q-3 -4 -6 -20t-5 -30l-1 -13q-4 -127 -7.5 -372t-5 -417.5t-1.5 -193.5l4 -336h-121q-24 37 -39 59.5 t-48 67t-63 82.5t-105.5 135t-152.5 194.5t-228.5 290t-309.5 394.5v-629q10 -391 10 -424q0 -24 14 -41t41.5 -26.5t54 -14t66.5 -8.5v-80h-483v74q78 7 121.5 26t48.5 64q14 104 14 758v65v92t-0.5 101t-1 90t-0.5 68.5v27.5q-4 23 -21.5 38.5t-66.5 20.5zM489 1700 q34 49 116 126t110 77q25 0 59.5 -19t88 -47t110.5 -43q64 18 137 88l31 -24q-34 -50 -105.5 -118.5t-99.5 -68.5q-34 0 -126 54.5t-132 54.5q-34 -10 -80 -42.5t-82 -66.5z" />
<glyph unicode="&#xd2;" horiz-adv-x="1525" d="M86 733q0 318 131 516q54 80 139 140.5t172.5 90.5t158.5 44t122 14q320 0 476.5 -182t156.5 -514q0 -379 -146 -592q-52 -76 -131.5 -134t-161 -87.5t-149.5 -43.5t-119 -14q-134 0 -242.5 38.5t-183.5 106.5t-125.5 164t-74 209t-23.5 244zM295 776q0 -20 0.5 -35.5 t3 -54t7 -71t15 -79t24 -86t36 -85t50.5 -82t67 -71t86 -58.5q60 -30 111.5 -39t133.5 -9q93 0 164.5 32t126 102.5t83 190.5t28.5 288q0 146 -22 261.5t-57.5 190t-87 126t-104 76.5t-114.5 34q-18 4 -111 4q-77 0 -142 -20.5t-121 -67.5t-94.5 -119t-60.5 -180.5 t-22 -247.5zM465 1890v8q0 34 30.5 65.5t69.5 37.5q213 -191 373 -307l-27 -49q-87 38 -228 116.5t-218 128.5z" />
<glyph unicode="&#xd3;" horiz-adv-x="1525" d="M86 733q0 318 131 516q54 80 139 140.5t172.5 90.5t158.5 44t122 14q320 0 476.5 -182t156.5 -514q0 -379 -146 -592q-52 -76 -131.5 -134t-161 -87.5t-149.5 -43.5t-119 -14q-134 0 -242.5 38.5t-183.5 106.5t-125.5 164t-74 209t-23.5 244zM295 776q0 -20 0.5 -35.5 t3 -54t7 -71t15 -79t24 -86t36 -85t50.5 -82t67 -71t86 -58.5q60 -30 111.5 -39t133.5 -9q93 0 164.5 32t126 102.5t83 190.5t28.5 288q0 146 -22 261.5t-57.5 190t-87 126t-104 76.5t-114.5 34q-18 4 -111 4q-77 0 -142 -20.5t-121 -67.5t-94.5 -119t-60.5 -180.5 t-22 -247.5zM645 1694q160 116 373 307q39 -6 69.5 -37.5t30.5 -65.5v-8q-77 -50 -218 -128.5t-228 -116.5z" />
<glyph unicode="&#xd4;" horiz-adv-x="1525" d="M86 733q0 318 131 516q54 80 139 140.5t172.5 90.5t158.5 44t122 14q320 0 476.5 -182t156.5 -514q0 -379 -146 -592q-52 -76 -131.5 -134t-161 -87.5t-149.5 -43.5t-119 -14q-134 0 -242.5 38.5t-183.5 106.5t-125.5 164t-74 209t-23.5 244zM295 776q0 -20 0.5 -35.5 t3 -54t7 -71t15 -79t24 -86t36 -85t50.5 -82t67 -71t86 -58.5q60 -30 111.5 -39t133.5 -9q93 0 164.5 32t126 102.5t83 190.5t28.5 288q0 146 -22 261.5t-57.5 190t-87 126t-104 76.5t-114.5 34q-18 4 -111 4q-77 0 -142 -20.5t-121 -67.5t-94.5 -119t-60.5 -180.5 t-22 -247.5zM559 1661q102 106 209 252h82q56 -83 96 -131.5t105 -118.5l-39 -35l-211 139l-205 -143z" />
<glyph unicode="&#xd5;" horiz-adv-x="1525" d="M86 733q0 318 131 516q54 80 139 140.5t172.5 90.5t158.5 44t122 14q320 0 476.5 -182t156.5 -514q0 -379 -146 -592q-52 -76 -131.5 -134t-161 -87.5t-149.5 -43.5t-119 -14q-134 0 -242.5 38.5t-183.5 106.5t-125.5 164t-74 209t-23.5 244zM295 776q0 -20 0.5 -35.5 t3 -54t7 -71t15 -79t24 -86t36 -85t50.5 -82t67 -71t86 -58.5q60 -30 111.5 -39t133.5 -9q93 0 164.5 32t126 102.5t83 190.5t28.5 288q0 146 -22 261.5t-57.5 190t-87 126t-104 76.5t-114.5 34q-18 4 -111 4q-77 0 -142 -20.5t-121 -67.5t-94.5 -119t-60.5 -180.5 t-22 -247.5zM467 1700q34 49 115.5 126t109.5 77q25 0 59.5 -19t88 -47t110.5 -43q64 18 137 88l31 -24q-34 -50 -105.5 -118.5t-99.5 -68.5q-34 0 -126 54.5t-132 54.5q-66 -19 -161 -109z" />
<glyph unicode="&#xd6;" horiz-adv-x="1525" d="M86 733q0 318 131 516q54 80 139 140.5t172.5 90.5t158.5 44t122 14q320 0 476.5 -182t156.5 -514q0 -379 -146 -592q-52 -76 -131.5 -134t-161 -87.5t-149.5 -43.5t-119 -14q-134 0 -242.5 38.5t-183.5 106.5t-125.5 164t-74 209t-23.5 244zM295 776q0 -20 0.5 -35.5 t3 -54t7 -71t15 -79t24 -86t36 -85t50.5 -82t67 -71t86 -58.5q60 -30 111.5 -39t133.5 -9q93 0 164.5 32t126 102.5t83 190.5t28.5 288q0 146 -22 261.5t-57.5 190t-87 126t-104 76.5t-114.5 34q-18 4 -111 4q-77 0 -142 -20.5t-121 -67.5t-94.5 -119t-60.5 -180.5 t-22 -247.5zM494 1788q0 11 12.5 44t40.5 68t59 35q29 0 74 -38t45 -87q0 -50 -42.5 -98.5t-76.5 -48.5q-30 0 -71 51t-41 74zM877 1788q0 24 34.5 85.5t77.5 61.5q30 0 75.5 -38t45.5 -87q0 -50 -43 -98.5t-78 -48.5q-30 0 -71 51t-41 74z" />
<glyph unicode="&#xd8;" horiz-adv-x="1525" d="M86 733q0 318 131 516q54 80 139 140.5t172.5 90.5t158.5 44t122 14q177 0 307 -59l70 141l84 -39l-74 -147q246 -168 246 -592q0 -379 -146 -592q-52 -76 -131.5 -134t-161 -87.5t-149.5 -43.5t-119 -14q-134 0 -246 39l-69 -139l-80 37l68 139q-162 88 -242 267.5 t-80 418.5zM295 776q0 -35 1 -66t11.5 -105t29.5 -134.5t59 -132t96 -121.5l546 1104q-84 70 -192 86q-18 4 -111 4q-77 0 -142 -20.5t-121 -67.5t-94.5 -119t-60.5 -180.5t-22 -247.5zM565 162l19 -8q60 -30 111.5 -39t133.5 -9q93 0 164.5 32t126 102.5t83 190.5t28.5 288 q0 354 -127 528z" />
<glyph unicode="&#xd9;" horiz-adv-x="1550" d="M70 1436v75h565v-75q-96 -7 -140 -25t-44 -70q0 -36 1 -229.5t1 -312.5v-164q2 -113 2 -232q0 -37 11.5 -75.5t42.5 -81.5t78 -76t125.5 -54.5t176.5 -21.5q72 0 126 11.5t94.5 33t68 61t45 85.5t27 117.5t13 145.5t3.5 181q0 83 -2 282t-2 330q0 24 -15.5 41.5t-45 27 t-57 14t-67.5 8.5v79h484v-73q-159 -18 -164 -90l-2 -37q-4 -58 -12.5 -405t-8.5 -419q0 -96 -19 -173t-50.5 -130t-81 -92.5t-101 -62t-119 -36t-127.5 -18t-135 -4.5q-88 0 -161.5 19t-124 50t-89.5 73.5t-62 85.5t-37.5 89.5t-19.5 82t-5 67.5q-4 870 -6 893 q-7 64 -38.5 81.5t-127.5 23.5zM522 1890v8q0 34 30.5 65.5t70.5 37.5q217 -195 372 -307l-26 -49q-87 38 -228.5 116.5t-218.5 128.5z" />
<glyph unicode="&#xda;" horiz-adv-x="1550" d="M70 1436v75h565v-75q-96 -7 -140 -25t-44 -70q0 -36 1 -229.5t1 -312.5v-164q2 -113 2 -232q0 -37 11.5 -75.5t42.5 -81.5t78 -76t125.5 -54.5t176.5 -21.5q72 0 126 11.5t94.5 33t68 61t45 85.5t27 117.5t13 145.5t3.5 181q0 83 -2 282t-2 330q0 24 -15.5 41.5t-45 27 t-57 14t-67.5 8.5v79h484v-73q-159 -18 -164 -90l-2 -37q-4 -58 -12.5 -405t-8.5 -419q0 -96 -19 -173t-50.5 -130t-81 -92.5t-101 -62t-119 -36t-127.5 -18t-135 -4.5q-88 0 -161.5 19t-124 50t-89.5 73.5t-62 85.5t-37.5 89.5t-19.5 82t-5 67.5q-4 870 -6 893 q-7 64 -38.5 81.5t-127.5 23.5zM702 1694q160 116 373 307q40 -6 70.5 -37.5t30.5 -65.5v-8q-77 -50 -218.5 -128.5t-228.5 -116.5z" />
<glyph unicode="&#xdb;" horiz-adv-x="1550" d="M70 1436v75h565v-75q-96 -7 -140 -25t-44 -70q0 -36 1 -229.5t1 -312.5v-164q2 -113 2 -232q0 -37 11.5 -75.5t42.5 -81.5t78 -76t125.5 -54.5t176.5 -21.5q72 0 126 11.5t94.5 33t68 61t45 85.5t27 117.5t13 145.5t3.5 181q0 83 -2 282t-2 330q0 24 -15.5 41.5t-45 27 t-57 14t-67.5 8.5v79h484v-73q-159 -18 -164 -90l-2 -37q-4 -58 -12.5 -405t-8.5 -419q0 -96 -19 -173t-50.5 -130t-81 -92.5t-101 -62t-119 -36t-127.5 -18t-135 -4.5q-88 0 -161.5 19t-124 50t-89.5 73.5t-62 85.5t-37.5 89.5t-19.5 82t-5 67.5q-4 870 -6 893 q-7 64 -38.5 81.5t-127.5 23.5zM616 1661q102 106 209 252h82q56 -83 96 -131.5t105 -118.5l-39 -35l-211 139l-205 -143z" />
<glyph unicode="&#xdc;" horiz-adv-x="1550" d="M70 1436v75h565v-75q-96 -7 -140 -25t-44 -70q0 -36 1 -229.5t1 -312.5v-164q2 -113 2 -232q0 -37 11.5 -75.5t42.5 -81.5t78 -76t125.5 -54.5t176.5 -21.5q72 0 126 11.5t94.5 33t68 61t45 85.5t27 117.5t13 145.5t3.5 181q0 83 -2 282t-2 330q0 24 -15.5 41.5t-45 27 t-57 14t-67.5 8.5v79h484v-73q-159 -18 -164 -90l-2 -37q-4 -58 -12.5 -405t-8.5 -419q0 -96 -19 -173t-50.5 -130t-81 -92.5t-101 -62t-119 -36t-127.5 -18t-135 -4.5q-88 0 -161.5 19t-124 50t-89.5 73.5t-62 85.5t-37.5 89.5t-19.5 82t-5 67.5q-4 870 -6 893 q-7 64 -38.5 81.5t-127.5 23.5zM551 1788q0 7 8 29t22 49.5t36.5 48t46.5 20.5q29 0 73.5 -38t44.5 -87q0 -50 -42 -98.5t-76 -48.5q-30 0 -71.5 51t-41.5 74zM934 1788q0 24 35 85.5t78 61.5q30 0 75 -37.5t45 -87.5t-42.5 -98.5t-77.5 -48.5q-30 0 -71.5 51t-41.5 74z" />
<glyph unicode="&#xdd;" horiz-adv-x="1329" d="M0 1436v75h565v-75q-99 -7 -134.5 -22t-35.5 -46q0 -43 310 -532q102 146 222 330t120 212t-33 38.5t-111 15.5v79h426v-73q-77 -9 -112 -52l-459 -634q-6 -135 -6 -447q0 -151 10 -168q18 -33 71 -46t134 -19v-72h-635v72q31 2 51.5 4.5t48.5 7t46 11.5t35 17t25.5 24.5 t8.5 33.5q0 150 -2 291t-4 207l-2 65q-46 82 -408 606q-2 4 -6.5 10t-18.5 22t-28 28.5t-35.5 23.5t-42.5 13zM586 1694q155 112 372 307q40 -6 70.5 -37.5t30.5 -65.5v-8q-77 -50 -218.5 -128.5t-228.5 -116.5z" />
<glyph unicode="&#xdf;" horiz-adv-x="1224" d="M53 0v70q105 16 125 25q31 14 36 55q3 20 3 59q0 143 -12 709l-2 100q0 92 17 179t54 167t89.5 139.5t130 95t170.5 35.5q154 0 240.5 -79.5t86.5 -196.5q0 -45 -20 -88t-48 -78t-56 -69.5t-48 -76.5t-20 -85q0 -52 20 -97t52 -80t71 -70t78 -73t71 -81.5t52 -104.5 t20 -133q0 -109 -30 -158q-26 -42 -37.5 -58.5t-33.5 -41t-54 -48.5q-31 -23 -96 -37t-99 -14q-84 0 -164 48t-80 96q0 89 1.5 133t8.5 70.5t16.5 32t29.5 5.5q19 0 30.5 -19t16 -47t15 -61t25 -61t48.5 -47t84 -19q86 0 136 39t50 115q0 43 -30 94.5t-75.5 97t-98 98.5 t-98 100t-75.5 100.5t-30 99.5q0 70 15.5 125.5t39 88.5t51 65.5t51 57t39 62t15.5 82.5q0 111 -41.5 177.5t-118.5 66.5q-61 0 -109.5 -38t-76.5 -94.5t-47 -127.5t-26 -131t-7 -111q0 -130 -4.5 -428t-4.5 -367v-60.5t2 -44t5 -33.5t9.5 -21.5t14.5 -15.5t22.5 -8t31 -7 t40.5 -5q6 -1 9 -1t8.5 -0.5t9.5 -1.5v-70h-498z" />
<glyph unicode="&#xe0;" horiz-adv-x="978" d="M82 248q0 57 9 102.5t28.5 79.5t42.5 59.5t59 44.5t69 31.5t82 24t88 18.5t97.5 18t101.5 21q0 27 1.5 70t1.5 53q0 49 -21 85.5t-55.5 55t-71 27t-76.5 8.5q-37 0 -63 -4.5t-47 -19.5t-34 -30t-27 -49.5t-23 -64t-25 -86.5l-84 8q1 7 2 36t3 53t11 60.5t24 65.5 t44.5 60.5t69.5 52.5t102 35t139 14q65 0 116.5 -10.5t84.5 -26t57 -40.5t35.5 -46.5t18 -53t7.5 -50t1 -47.5q0 -156 -4 -333t-4 -208q0 -38 23 -82t46 -78.5t23 -48.5q0 -11 -19 -16q-143 -47 -157 -47q-20 0 -37.5 28.5t-32.5 73t-16 45.5q-30 -19 -75.5 -50.5t-63 -42.5 t-49.5 -28t-56 -22t-61 -9.5t-84 -4.5q-45 0 -80.5 15.5t-58 41.5t-36.5 61.5t-20 72t-6 77.5zM186 1464q1 36 37.5 64t79.5 28q202 -250 313 -368l-32 -43q-81 53 -207 155t-191 164zM266 268q0 -78 37 -114.5t100 -36.5q56 0 122 28t122 74q15 13 15 174q0 82 -3 174 q-39 -13 -107 -35q-77 -25 -108.5 -36t-74 -30t-55 -32.5t-28 -39t-18 -53.5t-2.5 -73z" />
<glyph unicode="&#xe1;" horiz-adv-x="978" d="M82 248q0 57 9 102.5t28.5 79.5t42.5 59.5t59 44.5t69 31.5t82 24t88 18.5t97.5 18t101.5 21q0 27 1.5 70t1.5 53q0 49 -21 85.5t-55.5 55t-71 27t-76.5 8.5q-37 0 -63 -4.5t-47 -19.5t-34 -30t-27 -49.5t-23 -64t-25 -86.5l-84 8q1 7 2 36t3 53t11 60.5t24 65.5 t44.5 60.5t69.5 52.5t102 35t139 14q65 0 116.5 -10.5t84.5 -26t57 -40.5t35.5 -46.5t18 -53t7.5 -50t1 -47.5q0 -156 -4 -333t-4 -208q0 -38 23 -82t46 -78.5t23 -48.5q0 -11 -19 -16q-143 -47 -157 -47q-20 0 -37.5 28.5t-32.5 73t-16 45.5q-30 -19 -75.5 -50.5t-63 -42.5 t-49.5 -28t-56 -22t-61 -9.5t-84 -4.5q-45 0 -80.5 15.5t-58 41.5t-36.5 61.5t-20 72t-6 77.5zM266 268q0 -78 37 -114.5t100 -36.5q56 0 122 28t122 74q15 13 15 174q0 82 -3 174q-39 -13 -107 -35q-77 -25 -108.5 -36t-74 -30t-55 -32.5t-28 -39t-18 -53.5t-2.5 -73z M387 1186q111 118 313 368q43 0 79.5 -28t39.5 -64q-69 -64 -193.5 -165.5t-203.5 -153.5z" />
<glyph unicode="&#xe2;" horiz-adv-x="978" d="M82 248q0 57 9 102.5t28.5 79.5t42.5 59.5t59 44.5t69 31.5t82 24t88 18.5t97.5 18t101.5 21q0 27 1.5 70t1.5 53q0 49 -21 85.5t-55.5 55t-71 27t-76.5 8.5q-37 0 -63 -4.5t-47 -19.5t-34 -30t-27 -49.5t-23 -64t-25 -86.5l-84 8q1 7 2 36t3 53t11 60.5t24 65.5 t44.5 60.5t69.5 52.5t102 35t139 14q65 0 116.5 -10.5t84.5 -26t57 -40.5t35.5 -46.5t18 -53t7.5 -50t1 -47.5q0 -156 -4 -333t-4 -208q0 -38 23 -82t46 -78.5t23 -48.5q0 -11 -19 -16q-143 -47 -157 -47q-20 0 -37.5 28.5t-32.5 73t-16 45.5q-30 -19 -75.5 -50.5t-63 -42.5 t-49.5 -28t-56 -22t-61 -9.5t-84 -4.5q-45 0 -80.5 15.5t-58 41.5t-36.5 61.5t-20 72t-6 77.5zM262 1190q64 93 136.5 205.5t90.5 144.5h82q26 -51 91 -167t108 -179l-33 -27l-231 217l-203 -221zM266 268q0 -78 37 -114.5t100 -36.5q56 0 122 28t122 74q15 13 15 174 q0 82 -3 174q-39 -13 -107 -35q-77 -25 -108.5 -36t-74 -30t-55 -32.5t-28 -39t-18 -53.5t-2.5 -73z" />
<glyph unicode="&#xe3;" horiz-adv-x="978" d="M82 248q0 57 9 102.5t28.5 79.5t42.5 59.5t59 44.5t69 31.5t82 24t88 18.5t97.5 18t101.5 21q0 27 1.5 70t1.5 53q0 49 -21 85.5t-55.5 55t-71 27t-76.5 8.5q-37 0 -63 -4.5t-47 -19.5t-34 -30t-27 -49.5t-23 -64t-25 -86.5l-84 8q1 7 2 36t3 53t11 60.5t24 65.5 t44.5 60.5t69.5 52.5t102 35t139 14q65 0 116.5 -10.5t84.5 -26t57 -40.5t35.5 -46.5t18 -53t7.5 -50t1 -47.5q0 -156 -4 -333t-4 -208q0 -38 23 -82t46 -78.5t23 -48.5q0 -11 -19 -16q-143 -47 -157 -47q-20 0 -37.5 28.5t-32.5 73t-16 45.5q-30 -19 -75.5 -50.5t-63 -42.5 t-49.5 -28t-56 -22t-61 -9.5t-84 -4.5q-45 0 -80.5 15.5t-58 41.5t-36.5 61.5t-20 72t-6 77.5zM178 1233q34 49 115.5 126t109.5 77q25 0 60 -19t88.5 -47t110.5 -43q64 18 137 88l30 -24q-34 -50 -105 -118.5t-99 -68.5q-34 0 -126 54.5t-132 54.5q-34 -10 -80 -42.5 t-82 -66.5zM266 268q0 -78 37 -114.5t100 -36.5q56 0 122 28t122 74q15 13 15 174q0 82 -3 174q-39 -13 -107 -35q-77 -25 -108.5 -36t-74 -30t-55 -32.5t-28 -39t-18 -53.5t-2.5 -73z" />
<glyph unicode="&#xe4;" horiz-adv-x="978" d="M82 248q0 57 9 102.5t28.5 79.5t42.5 59.5t59 44.5t69 31.5t82 24t88 18.5t97.5 18t101.5 21q0 27 1.5 70t1.5 53q0 49 -21 85.5t-55.5 55t-71 27t-76.5 8.5q-37 0 -63 -4.5t-47 -19.5t-34 -30t-27 -49.5t-23 -64t-25 -86.5l-84 8q1 7 2 36t3 53t11 60.5t24 65.5 t44.5 60.5t69.5 52.5t102 35t139 14q65 0 116.5 -10.5t84.5 -26t57 -40.5t35.5 -46.5t18 -53t7.5 -50t1 -47.5q0 -156 -4 -333t-4 -208q0 -38 23 -82t46 -78.5t23 -48.5q0 -11 -19 -16q-143 -47 -157 -47q-20 0 -37.5 28.5t-32.5 73t-16 45.5q-30 -19 -75.5 -50.5t-63 -42.5 t-49.5 -28t-56 -22t-61 -9.5t-84 -4.5q-45 0 -80.5 15.5t-58 41.5t-36.5 61.5t-20 72t-6 77.5zM205 1321q0 11 12.5 44t40.5 68t59 35q29 0 74 -38t45 -87q0 -50 -42.5 -98.5t-76.5 -48.5q-30 0 -71 51t-41 74zM266 268q0 -78 37 -114.5t100 -36.5q56 0 122 28t122 74 q15 13 15 174q0 82 -3 174q-39 -13 -107 -35q-77 -25 -108.5 -36t-74 -30t-55 -32.5t-28 -39t-18 -53.5t-2.5 -73zM588 1321q0 24 34.5 85.5t77.5 61.5q30 0 75.5 -38t45.5 -87q0 -50 -43 -98.5t-78 -48.5q-30 0 -71 51t-41 74z" />
<glyph unicode="&#xe5;" horiz-adv-x="978" d="M82 248q0 57 9 102.5t28.5 79.5t42.5 59.5t59 44.5t69 31.5t82 24t88 18.5t97.5 18t101.5 21q0 27 1.5 70t1.5 53q0 49 -21 85.5t-55.5 55t-71 27t-76.5 8.5q-37 0 -63 -4.5t-47 -19.5t-34 -30t-27 -49.5t-23 -64t-25 -86.5l-84 8q1 7 2 36t3 53t11 60.5t24 65.5 t44.5 60.5t69.5 52.5t102 35t139 14q65 0 116.5 -10.5t84.5 -26t57 -40.5t35.5 -46.5t18 -53t7.5 -50t1 -47.5q0 -156 -4 -333t-4 -208q0 -38 23 -82t46 -78.5t23 -48.5q0 -11 -19 -16q-143 -47 -157 -47q-20 0 -37.5 28.5t-32.5 73t-16 45.5q-30 -19 -75.5 -50.5t-63 -42.5 t-49.5 -28t-56 -22t-61 -9.5t-84 -4.5q-45 0 -80.5 15.5t-58 41.5t-36.5 61.5t-20 72t-6 77.5zM266 268q0 -78 37 -114.5t100 -36.5q56 0 122 28t122 74q15 13 15 174q0 82 -3 174q-39 -13 -107 -35q-77 -25 -108.5 -36t-74 -30t-55 -32.5t-28 -39t-18 -53.5t-2.5 -73z M330 1343q0 60 30 105q21 28 71 52t83 24q66 0 113 -39t47 -119q0 -83 -33 -129l-5 -5q-5 -6 -10.5 -11.5t-14.5 -14t-17.5 -15.5t-19 -13.5t-19.5 -10.5q-30 -12 -68 -12q-28 0 -52 7t-49.5 25.5t-40.5 58.5t-15 97zM416 1348q0 -70 26 -97.5t76 -27.5q23 0 29 2 q45 18 45 121q0 50 -15 72.5t-51 33.5q-20 4 -34 4q-20 0 -29.5 -2t-22.5 -11t-18.5 -32.5t-5.5 -62.5z" />
<glyph unicode="&#xe6;" horiz-adv-x="1556" d="M82 248q0 57 9 102.5t28.5 79.5t42.5 59.5t59 44.5t69 31.5t82 24t88 18.5t97.5 18t101.5 21q0 27 1.5 70t1.5 53q0 49 -21 85.5t-55.5 55t-71 27t-76.5 8.5q-37 0 -63 -4.5t-47 -19.5t-34 -30t-27 -49.5t-23 -64t-25 -86.5l-84 8q1 7 2 36t3 53t11 60.5t24 65.5 t44.5 60.5t69.5 52.5t102 35t139 14q233 0 293 -127q147 121 275 121q64 0 117 -11t91.5 -30t68.5 -46.5t49.5 -57t33 -66t20.5 -68.5t10.5 -69t4 -64t0.5 -57v-27q-64 -40 -215 -40h-420q0 -43 0.5 -68t3 -64.5t7 -64t14 -56.5t22.5 -52t33.5 -42t46.5 -33.5t61 -19.5 t78 -8q178 0 326 145l45 -47q-9 -9 -35 -36t-36.5 -37.5t-35.5 -34.5t-38.5 -35t-38 -30t-41.5 -28t-41.5 -22t-46 -18.5t-47.5 -10t-52 -4.5q-251 0 -356 205l-55 -37q-30 -19 -75.5 -50.5t-63 -42.5t-49.5 -28t-56 -22t-61 -9.5t-84 -4.5q-45 0 -80.5 15.5t-58 41.5 t-36.5 61.5t-20 72t-6 77.5zM266 268q0 -78 37 -114.5t100 -36.5q56 0 122 28t122 74q15 13 15 174q0 82 -3 174q-39 -13 -107 -35q-77 -25 -108.5 -36t-74 -30t-55 -32.5t-28 -39t-18 -53.5t-2.5 -73zM862 627h117q147 0 218.5 6.5t105.5 30.5q0 33 -4 65t-18 71.5 t-36 68.5t-62.5 49t-92.5 20q-59 0 -99.5 -12.5t-66 -34.5t-39 -62t-18.5 -86t-5 -116z" />
<glyph unicode="&#xe7;" horiz-adv-x="903" d="M61 492q0 85 13 207.5t37 146.5q84 82 147.5 131.5t115 69.5t80 24t76.5 4q79 0 164 -16t117 -27q-8 -55 -8 -307h-60l-32 131q-10 36 -88.5 57t-173.5 21q-84 0 -127.5 -34.5t-61.5 -113t-18 -229.5q0 -137 24 -242q30 -76 82 -135q72 -59 152 -59q38 0 83.5 16t83 38 t69 44.5t49.5 38.5l18 16l43 -41l-228 -247l-26 -4q-46 -10 -78 -13h-27h-43l-12 -57q79 -16 131.5 -53.5t52.5 -102.5q0 -37 -9 -63.5t-28.5 -45.5t-36 -29.5t-46.5 -25.5q-47 -8 -179 -14l-6 78q98 0 149.5 23.5t51.5 56.5q0 29 -40.5 52t-109.5 26l-24 22l51 141 q-84 14 -156 56q-50 44 -81.5 92t-61.5 121q-29 127 -29 246z" />
<glyph unicode="&#xe8;" horiz-adv-x="956" d="M61 504q0 98 15 187t30 126q34 76 158.5 165t233.5 89q64 0 117 -11t91.5 -30t68.5 -46.5t49.5 -57t33 -66t20.5 -68.5t10.5 -69t4 -64t0.5 -57v-27q-64 -40 -215 -40h-420q0 -44 0.5 -68t3 -64.5t7 -64t13.5 -56.5t22.5 -52.5t33.5 -41.5t46 -33.5t61.5 -19.5t78.5 -8 q178 0 326 145l45 -47q-9 -9 -35 -36t-36.5 -37.5t-35.5 -34.5t-38.5 -35t-38 -30t-41.5 -28t-41.5 -22t-46 -18.5t-47.5 -10t-52 -4.5q-99 0 -175.5 33t-122 84.5t-74.5 124.5t-39.5 143.5t-10.5 149.5zM190 1464q1 36 37.5 64t79.5 28q196 -243 314 -368l-33 -43 q-81 53 -207 155t-191 164zM262 627h117q147 0 218 6.5t105 30.5q0 33 -4 65t-18 71.5t-36 68.5t-62.5 49t-92.5 20q-59 0 -99.5 -12.5t-65.5 -34.5t-39 -62.5t-18.5 -86t-4.5 -115.5z" />
<glyph unicode="&#xe9;" horiz-adv-x="956" d="M61 504q0 98 15 187t30 126q34 76 158.5 165t233.5 89q64 0 117 -11t91.5 -30t68.5 -46.5t49.5 -57t33 -66t20.5 -68.5t10.5 -69t4 -64t0.5 -57v-27q-64 -40 -215 -40h-420q0 -44 0.5 -68t3 -64.5t7 -64t13.5 -56.5t22.5 -52.5t33.5 -41.5t46 -33.5t61.5 -19.5t78.5 -8 q178 0 326 145l45 -47q-9 -9 -35 -36t-36.5 -37.5t-35.5 -34.5t-38.5 -35t-38 -30t-41.5 -28t-41.5 -22t-46 -18.5t-47.5 -10t-52 -4.5q-99 0 -175.5 33t-122 84.5t-74.5 124.5t-39.5 143.5t-10.5 149.5zM262 627h117q147 0 218 6.5t105 30.5q0 33 -4 65t-18 71.5t-36 68.5 t-62.5 49t-92.5 20q-59 0 -99.5 -12.5t-65.5 -34.5t-39 -62.5t-18.5 -86t-4.5 -115.5zM391 1186q118 125 314 368q43 0 79 -28t39 -64q-69 -64 -193.5 -165.5t-203.5 -153.5z" />
<glyph unicode="&#xea;" horiz-adv-x="956" d="M61 504q0 98 15 187t30 126q34 76 158.5 165t233.5 89q64 0 117 -11t91.5 -30t68.5 -46.5t49.5 -57t33 -66t20.5 -68.5t10.5 -69t4 -64t0.5 -57v-27q-64 -40 -215 -40h-420q0 -44 0.5 -68t3 -64.5t7 -64t13.5 -56.5t22.5 -52.5t33.5 -41.5t46 -33.5t61.5 -19.5t78.5 -8 q178 0 326 145l45 -47q-9 -9 -35 -36t-36.5 -37.5t-35.5 -34.5t-38.5 -35t-38 -30t-41.5 -28t-41.5 -22t-46 -18.5t-47.5 -10t-52 -4.5q-99 0 -175.5 33t-122 84.5t-74.5 124.5t-39.5 143.5t-10.5 149.5zM262 627h117q147 0 218 6.5t105 30.5q0 33 -4 65t-18 71.5t-36 68.5 t-62.5 49t-92.5 20q-59 0 -99.5 -12.5t-65.5 -34.5t-39 -62.5t-18.5 -86t-4.5 -115.5zM266 1190q167 244 228 350h81q26 -51 91 -167t108 -179l-33 -27l-231 217l-203 -221z" />
<glyph unicode="&#xeb;" horiz-adv-x="956" d="M61 504q0 98 15 187t30 126q34 76 158.5 165t233.5 89q64 0 117 -11t91.5 -30t68.5 -46.5t49.5 -57t33 -66t20.5 -68.5t10.5 -69t4 -64t0.5 -57v-27q-64 -40 -215 -40h-420q0 -44 0.5 -68t3 -64.5t7 -64t13.5 -56.5t22.5 -52.5t33.5 -41.5t46 -33.5t61.5 -19.5t78.5 -8 q178 0 326 145l45 -47q-9 -9 -35 -36t-36.5 -37.5t-35.5 -34.5t-38.5 -35t-38 -30t-41.5 -28t-41.5 -22t-46 -18.5t-47.5 -10t-52 -4.5q-99 0 -175.5 33t-122 84.5t-74.5 124.5t-39.5 143.5t-10.5 149.5zM209 1321q0 7 8 29t22 49.5t36.5 48t46.5 20.5q29 0 73.5 -38 t44.5 -87q0 -50 -42 -98.5t-76 -48.5q-30 0 -71.5 51t-41.5 74zM262 627h117q147 0 218 6.5t105 30.5q0 33 -4 65t-18 71.5t-36 68.5t-62.5 49t-92.5 20q-59 0 -99.5 -12.5t-65.5 -34.5t-39 -62.5t-18.5 -86t-4.5 -115.5zM592 1321q0 24 35 85.5t78 61.5q30 0 75 -37.5 t45 -87.5t-42.5 -98.5t-77.5 -48.5q-30 0 -71.5 51t-41.5 74z" />
<glyph unicode="&#xec;" horiz-adv-x="577" d="M-37 1464q1 36 37.5 64t79.5 28q202 -250 313 -368l-33 -43q-81 52 -206 154.5t-191 164.5zM61 0v70q105 7 131.5 26.5t26.5 81.5v426q0 91 -1 145.5t-6.5 98.5t-11.5 63.5t-22 32.5t-31 15t-45 2h-30l-4 67q88 8 160 20.5t106 20.5t41 8q35 0 35 -33q0 -24 -3 -133.5 t-5.5 -310.5t-2.5 -446q0 -41 33.5 -60t104.5 -24v-70h-476z" />
<glyph unicode="&#xed;" horiz-adv-x="577" d="M61 0v70q105 7 131.5 26.5t26.5 81.5v426q0 91 -1 145.5t-6.5 98.5t-11.5 63.5t-22 32.5t-31 15t-45 2h-30l-4 67q88 8 160 20.5t106 20.5t41 8q35 0 35 -33q0 -24 -3 -133.5t-5.5 -310.5t-2.5 -446q0 -41 33.5 -60t104.5 -24v-70h-476zM164 1186q111 118 313 368 q43 0 79.5 -28t39.5 -64q-69 -64 -193.5 -165.5t-203.5 -153.5z" />
<glyph unicode="&#xee;" horiz-adv-x="577" d="M39 1190q64 93 136.5 205.5t90.5 144.5h82q26 -51 91 -167t108 -179l-33 -27l-231 217l-203 -221zM61 0v70q105 7 131.5 26.5t26.5 81.5v426q0 91 -1 145.5t-6.5 98.5t-11.5 63.5t-22 32.5t-31 15t-45 2h-30l-4 67q88 8 160 20.5t106 20.5t41 8q35 0 35 -33 q0 -24 -3 -133.5t-5.5 -310.5t-2.5 -446q0 -41 33.5 -60t104.5 -24v-70h-476z" />
<glyph unicode="&#xef;" horiz-adv-x="577" d="M-18 1321q0 11 12.5 44t40.5 68t59 35q29 0 74 -38t45 -87q0 -50 -42.5 -98.5t-76.5 -48.5q-30 0 -71 51t-41 74zM61 0v70q105 7 131.5 26.5t26.5 81.5v426q0 91 -1 145.5t-6.5 98.5t-11.5 63.5t-22 32.5t-31 15t-45 2h-30l-4 67q88 8 160 20.5t106 20.5t41 8 q35 0 35 -33q0 -24 -3 -133.5t-5.5 -310.5t-2.5 -446q0 -41 33.5 -60t104.5 -24v-70h-476zM365 1321q0 24 34.5 85.5t77.5 61.5q30 0 75.5 -38t45.5 -87q0 -50 -43 -98.5t-78 -48.5q-30 0 -71 51t-41 74z" />
<glyph unicode="&#xf1;" horiz-adv-x="1153" d="M66 1010q84 9 169.5 39t106.5 30q28 0 38.5 -22.5t10.5 -85.5v-29q236 133 385 133q51 0 90.5 -15.5t63.5 -39.5t39.5 -57t21.5 -64t6 -63v-684q0 -44 19.5 -61t89.5 -21v-70h-418v70q78 6 97.5 24t19.5 66v649q0 39 -16 64t-46 35.5t-56 14t-62 3.5q-39 0 -113 -24 t-115 -52q-2 -121 -6 -253.5t-6 -213.5t-2 -129q0 -45 1.5 -74.5t8.5 -50t13 -31t23.5 -17t31 -8t43.5 -3.5v-70h-430v70q27 4 40.5 6.5t30 8.5t23 11t15 19.5t10.5 27.5t5 40t3 53v71q0 25 -6 286.5t-9 270.5q-3 11 -6 19.5t-8 15t-8 11t-11 8t-11.5 5.5t-14.5 3.5t-15.5 2 t-19.5 2t-20 1.5zM311 1233q34 49 116 126t110 77q25 0 59.5 -19t88 -47t110.5 -43q64 18 137 88l31 -24q-34 -50 -105.5 -118.5t-99.5 -68.5q-34 0 -126 54.5t-132 54.5q-34 -10 -80 -42.5t-82 -66.5z" />
<glyph unicode="&#xf2;" horiz-adv-x="1058" d="M61 532q0 96 26.5 182t57.5 136q55 85 192 156t228 71q67 0 128.5 -15.5t119.5 -52t100 -90t67.5 -135t25.5 -182.5q0 -136 -20.5 -225t-70.5 -164q-12 -15 -28 -34.5t-50.5 -57.5t-76.5 -71t-80 -50q-77 -35 -186 -35q-41 0 -79 5.5t-82.5 21.5t-82 42t-73.5 70 t-61 101.5t-40 141.5t-15 185zM231 1464q1 36 37.5 64t79.5 28q196 -243 314 -368l-33 -43q-81 53 -207 155t-191 164zM256 549q0 -127 23 -214.5t69 -135.5t103.5 -68t136.5 -20q61 0 90 10q141 56 141 426q0 173 -45.5 254t-159.5 117q-58 14 -110 14q-50 0 -75.5 -2.5 t-64.5 -22t-58 -58t-34.5 -114t-15.5 -186.5z" />
<glyph unicode="&#xf3;" horiz-adv-x="1058" d="M61 532q0 96 26.5 182t57.5 136q55 85 192 156t228 71q67 0 128.5 -15.5t119.5 -52t100 -90t67.5 -135t25.5 -182.5q0 -136 -20.5 -225t-70.5 -164q-12 -15 -28 -34.5t-50.5 -57.5t-76.5 -71t-80 -50q-77 -35 -186 -35q-41 0 -79 5.5t-82.5 21.5t-82 42t-73.5 70 t-61 101.5t-40 141.5t-15 185zM256 549q0 -127 23 -214.5t69 -135.5t103.5 -68t136.5 -20q61 0 90 10q141 56 141 426q0 173 -45.5 254t-159.5 117q-58 14 -110 14q-50 0 -75.5 -2.5t-64.5 -22t-58 -58t-34.5 -114t-15.5 -186.5zM432 1186q111 118 313 368q43 0 79.5 -28 t39.5 -64q-69 -64 -193.5 -165.5t-203.5 -153.5z" />
<glyph unicode="&#xf4;" horiz-adv-x="1058" d="M61 532q0 96 26.5 182t57.5 136q55 85 192 156t228 71q67 0 128.5 -15.5t119.5 -52t100 -90t67.5 -135t25.5 -182.5q0 -136 -20.5 -225t-70.5 -164q-12 -15 -28 -34.5t-50.5 -57.5t-76.5 -71t-80 -50q-77 -35 -186 -35q-41 0 -79 5.5t-82.5 21.5t-82 42t-73.5 70 t-61 101.5t-40 141.5t-15 185zM256 549q0 -127 23 -214.5t69 -135.5t103.5 -68t136.5 -20q61 0 90 10q141 56 141 426q0 173 -45.5 254t-159.5 117q-58 14 -110 14q-50 0 -75.5 -2.5t-64.5 -22t-58 -58t-34.5 -114t-15.5 -186.5zM307 1190q167 244 228 350h81 q26 -51 91 -167t108 -179l-33 -27l-231 217l-203 -221z" />
<glyph unicode="&#xf5;" horiz-adv-x="1058" d="M61 532q0 96 26.5 182t57.5 136q55 85 192 156t228 71q67 0 128.5 -15.5t119.5 -52t100 -90t67.5 -135t25.5 -182.5q0 -136 -20.5 -225t-70.5 -164q-12 -15 -28 -34.5t-50.5 -57.5t-76.5 -71t-80 -50q-77 -35 -186 -35q-41 0 -79 5.5t-82.5 21.5t-82 42t-73.5 70 t-61 101.5t-40 141.5t-15 185zM223 1233q34 49 116 126t110 77q25 0 59.5 -19t88 -47t110.5 -43q64 18 137 88l30 -24q-34 -50 -105 -118.5t-99 -68.5q-34 0 -126 54.5t-132 54.5q-34 -10 -80 -42.5t-82 -66.5zM256 549q0 -127 23 -214.5t69 -135.5t103.5 -68t136.5 -20 q61 0 90 10q141 56 141 426q0 173 -45.5 254t-159.5 117q-58 14 -110 14q-50 0 -75.5 -2.5t-64.5 -22t-58 -58t-34.5 -114t-15.5 -186.5z" />
<glyph unicode="&#xf6;" horiz-adv-x="1058" d="M61 532q0 96 26.5 182t57.5 136q55 85 192 156t228 71q67 0 128.5 -15.5t119.5 -52t100 -90t67.5 -135t25.5 -182.5q0 -136 -20.5 -225t-70.5 -164q-12 -15 -28 -34.5t-50.5 -57.5t-76.5 -71t-80 -50q-77 -35 -186 -35q-41 0 -79 5.5t-82.5 21.5t-82 42t-73.5 70 t-61 101.5t-40 141.5t-15 185zM250 1321q0 11 12.5 44t40.5 68t59 35q29 0 74 -38t45 -87q0 -50 -42.5 -98.5t-76.5 -48.5q-30 0 -71 51t-41 74zM256 549q0 -127 23 -214.5t69 -135.5t103.5 -68t136.5 -20q61 0 90 10q141 56 141 426q0 173 -45.5 254t-159.5 117 q-58 14 -110 14q-50 0 -75.5 -2.5t-64.5 -22t-58 -58t-34.5 -114t-15.5 -186.5zM633 1321q0 24 34.5 85.5t77.5 61.5q30 0 75.5 -38t45.5 -87q0 -50 -43 -98.5t-78 -48.5q-30 0 -71 51t-41 74z" />
<glyph unicode="&#xf8;" horiz-adv-x="1058" d="M61 532q0 96 26.5 182t57.5 136q55 85 192 156t228 71q98 0 185 -35l65 132l72 -39l-66 -131q185 -126 185 -402q0 -136 -20.5 -225t-70.5 -164q-12 -15 -28 -34.5t-50.5 -57.5t-76.5 -71t-80 -50q-77 -35 -186 -35q-95 0 -175 31l-61 -125l-70 37l62 125 q-189 134 -189 499zM256 549q0 -235 82 -340l338 684l-62 25q-58 14 -110 14q-50 0 -75.5 -2.5t-64.5 -22t-58 -58t-34.5 -114t-15.5 -186.5zM399 154q66 -43 189 -43q61 0 90 10q141 56 141 426q0 213 -78 297z" />
<glyph unicode="&#xf9;" horiz-adv-x="1138" d="M45 1020q79 9 147 22.5t102.5 23t41.5 9.5q37 0 37 -31q0 -124 -4 -335.5t-4 -262.5q0 -152 20 -208q14 -41 52.5 -68t70.5 -27q42 0 110.5 15t98.5 30q59 30 71.5 48t12.5 67q0 137 2 296t2 189q0 53 -2.5 83t-5.5 49.5t-14.5 27t-21.5 9t-34 1.5h-65l-5 68q89 9 161 21 t106 20t41 8q36 0 36 -31q0 -259 -8 -502.5t-8 -281.5t23 -82t46 -78.5t23 -48.5q0 -11 -18 -16q-144 -47 -158 -47q-20 0 -37.5 28.5t-32.5 73t-16 45.5q-85 -60 -172.5 -97.5t-132.5 -46.5t-74 -9q-74 0 -142 58.5t-91 147.5q-7 25 -14 107t-7 147v195q0 64 -0.5 103 t-3 76.5t-5.5 56.5t-10.5 36t-14.5 23.5t-22.5 11.5t-29.5 5.5t-38 0.5h-9zM254 1464q1 36 37.5 64t79.5 28q202 -250 313 -368l-33 -43q-81 52 -206 154.5t-191 164.5z" />
<glyph unicode="&#xfa;" horiz-adv-x="1138" d="M45 1020q79 9 147 22.5t102.5 23t41.5 9.5q37 0 37 -31q0 -124 -4 -335.5t-4 -262.5q0 -152 20 -208q14 -41 52.5 -68t70.5 -27q42 0 110.5 15t98.5 30q59 30 71.5 48t12.5 67q0 137 2 296t2 189q0 53 -2.5 83t-5.5 49.5t-14.5 27t-21.5 9t-34 1.5h-65l-5 68q89 9 161 21 t106 20t41 8q36 0 36 -31q0 -259 -8 -502.5t-8 -281.5t23 -82t46 -78.5t23 -48.5q0 -11 -18 -16q-144 -47 -158 -47q-20 0 -37.5 28.5t-32.5 73t-16 45.5q-85 -60 -172.5 -97.5t-132.5 -46.5t-74 -9q-74 0 -142 58.5t-91 147.5q-7 25 -14 107t-7 147v195q0 64 -0.5 103 t-3 76.5t-5.5 56.5t-10.5 36t-14.5 23.5t-22.5 11.5t-29.5 5.5t-38 0.5h-9zM455 1186q111 118 313 368q43 0 79.5 -28t39.5 -64q-68 -63 -193.5 -165t-204.5 -154z" />
<glyph unicode="&#xfb;" horiz-adv-x="1138" d="M45 1020q79 9 147 22.5t102.5 23t41.5 9.5q37 0 37 -31q0 -124 -4 -335.5t-4 -262.5q0 -152 20 -208q14 -41 52.5 -68t70.5 -27q42 0 110.5 15t98.5 30q59 30 71.5 48t12.5 67q0 137 2 296t2 189q0 53 -2.5 83t-5.5 49.5t-14.5 27t-21.5 9t-34 1.5h-65l-5 68q89 9 161 21 t106 20t41 8q36 0 36 -31q0 -259 -8 -502.5t-8 -281.5t23 -82t46 -78.5t23 -48.5q0 -11 -18 -16q-144 -47 -158 -47q-20 0 -37.5 28.5t-32.5 73t-16 45.5q-85 -60 -172.5 -97.5t-132.5 -46.5t-74 -9q-74 0 -142 58.5t-91 147.5q-7 25 -14 107t-7 147v195q0 64 -0.5 103 t-3 76.5t-5.5 56.5t-10.5 36t-14.5 23.5t-22.5 11.5t-29.5 5.5t-38 0.5h-9zM330 1190q64 93 136.5 205.5t90.5 144.5h82q26 -51 91 -167t108 -179l-33 -27l-232 217l-202 -221z" />
<glyph unicode="&#xfc;" horiz-adv-x="1138" d="M45 1020q79 9 147 22.5t102.5 23t41.5 9.5q37 0 37 -31q0 -124 -4 -335.5t-4 -262.5q0 -152 20 -208q14 -41 52.5 -68t70.5 -27q42 0 110.5 15t98.5 30q59 30 71.5 48t12.5 67q0 137 2 296t2 189q0 53 -2.5 83t-5.5 49.5t-14.5 27t-21.5 9t-34 1.5h-65l-5 68q89 9 161 21 t106 20t41 8q36 0 36 -31q0 -259 -8 -502.5t-8 -281.5t23 -82t46 -78.5t23 -48.5q0 -11 -18 -16q-144 -47 -158 -47q-20 0 -37.5 28.5t-32.5 73t-16 45.5q-85 -60 -172.5 -97.5t-132.5 -46.5t-74 -9q-74 0 -142 58.5t-91 147.5q-7 25 -14 107t-7 147v195q0 64 -0.5 103 t-3 76.5t-5.5 56.5t-10.5 36t-14.5 23.5t-22.5 11.5t-29.5 5.5t-38 0.5h-9zM272 1321q0 7 8 29t22 49.5t36.5 48t46.5 20.5q29 0 74 -38t45 -87q0 -50 -42.5 -98.5t-76.5 -48.5q-30 0 -71.5 51t-41.5 74zM655 1321q0 24 35 85.5t78 61.5q30 0 75.5 -38t45.5 -87 q0 -50 -43 -98.5t-78 -48.5q-30 0 -71.5 51t-41.5 74z" />
<glyph unicode="&#xfd;" horiz-adv-x="1007" d="M0 1026q78 10 147 24.5t103.5 23.5t42.5 9q35 0 35 -30q0 -29 54 -238.5t108 -404.5l53 -195q217 578 217 698q0 30 -11.5 43t-25.5 13t-25.5 9t-11.5 32q0 37 70 37q17 0 47.5 -2.5t40.5 -2.5q34 0 77.5 4.5t57.5 4.5q29 0 29 -31q0 -6 -2.5 -11.5t-10 -17t-19 -29 t-31.5 -55.5t-44.5 -88.5t-61.5 -135.5t-79 -189q-188 -466 -296 -810q-26 -81 -35 -95.5t-34 -14.5q-135 0 -135 59q0 25 23 67t50 81.5t50 90t23 89.5q0 76 -117.5 490t-167.5 471q-9 10 -18 16.5t-22 9.5t-21 4.5t-27 3t-29 2.5zM424 1186q111 118 313 368q43 0 79.5 -28 t39.5 -64q-69 -64 -193.5 -165.5t-203.5 -153.5z" />
<glyph unicode="&#xff;" horiz-adv-x="1007" d="M0 1026q78 10 147 24.5t103.5 23.5t42.5 9q35 0 35 -30q0 -29 54 -238.5t108 -404.5l53 -195q217 578 217 698q0 30 -11.5 43t-25.5 13t-25.5 9t-11.5 32q0 37 70 37q17 0 47.5 -2.5t40.5 -2.5q34 0 77.5 4.5t57.5 4.5q29 0 29 -31q0 -6 -2.5 -11.5t-10 -17t-19 -29 t-31.5 -55.5t-44.5 -88.5t-61.5 -135.5t-79 -189q-188 -466 -296 -810q-26 -81 -35 -95.5t-34 -14.5q-135 0 -135 59q0 25 23 67t50 81.5t50 90t23 89.5q0 76 -117.5 490t-167.5 471q-9 10 -18 16.5t-22 9.5t-21 4.5t-27 3t-29 2.5zM242 1321q0 11 12.5 44t40.5 68t59 35 q29 0 74 -38t45 -87q0 -50 -42.5 -98.5t-76.5 -48.5q-30 0 -71 51t-41 74zM625 1321q0 24 34.5 85.5t77.5 61.5q30 0 75.5 -38t45.5 -87q0 -50 -43 -98.5t-78 -48.5q-30 0 -71 51t-41 74z" />
<glyph unicode="&#x152;" horiz-adv-x="2256" d="M86 733q0 318 131 516q50 75 130.5 132.5t166.5 87t160.5 43.5t134.5 14q104 0 277.5 -13.5t218.5 -13.5q21 0 49 0.5t77 2t223 3t445 2.5l25 -22q-4 -17 -29 -187t-27 -192h-69q-7 41 -25 129.5t-20 91.5q-11 36 -33 53q-30 7 -76 13q-49 6 -258 6q-93 0 -130.5 -14 t-37.5 -56q-7 -201 -10 -487q93 0 283.5 4.5t222.5 7.5l-21 -152h-36q-36 26 -131 37.5t-203 12.5t-115 2q-4 -303 -4 -588q0 -49 74 -64.5t268 -15.5q55 0 127.5 6.5t87.5 18.5q52 46 104 249l29 111h76q-5 -54 -12 -249.5t-7 -225.5q-442 0 -593 2t-269 2 q-49 0 -242.5 -14.5t-312.5 -14.5q-135 0 -244 38.5t-184 107t-125 165t-73 209t-23 242.5zM295 776q0 -151 32.5 -271.5t88.5 -200.5t135 -133t167 -76t189 -23q36 0 75.5 3t90.5 12t84 29.5t33 49.5q6 198 6 676q0 358 -6 508q-3 86 -330 86q-107 0 -190 -18.5t-155.5 -64 t-119.5 -119.5t-73.5 -189t-26.5 -269z" />
<glyph unicode="&#x153;" horiz-adv-x="1712" d="M61 532q0 96 26.5 182t57.5 136q55 85 192 156t228 71q108 0 204 -43t157 -131q68 68 157.5 118t169.5 50q64 0 117.5 -11.5t91.5 -30t68.5 -46.5t50 -57t33 -65.5t20 -69t10.5 -69.5t4.5 -64t0.5 -57v-26q-64 -40 -215 -40h-420q0 -44 0.5 -68t3 -64.5t7 -64t13.5 -56.5 t22.5 -52.5t33.5 -41.5t46 -33.5t61.5 -19.5t78.5 -8q178 0 326 145l45 -47q-6 -6 -35 -35.5t-37.5 -38t-35.5 -34.5t-38.5 -35t-37.5 -29.5t-42 -28.5t-41.5 -21.5t-46 -19t-46.5 -10t-52 -4.5q-250 0 -356 203q-99 -119 -184 -163t-205 -44q-41 0 -79 5.5t-82.5 21.5 t-82 42t-73.5 70t-61 101.5t-40 141.5t-15 185zM256 549q0 -127 23 -214.5t69 -135.5t103.5 -68t136.5 -20q61 0 90 10q141 56 141 426q0 173 -45.5 254t-159.5 117q-58 14 -110 14q-50 0 -75.5 -2.5t-64.5 -22t-58 -58t-34.5 -114t-15.5 -186.5zM1018 627h115 q147 0 218.5 6.5t106.5 30.5q0 33 -4 65t-18 71.5t-36 68.5t-62.5 49t-92.5 20q-59 0 -99.5 -12.5t-65.5 -34.5t-39 -62.5t-18.5 -86t-4.5 -115.5z" />
<glyph unicode="&#x178;" horiz-adv-x="1329" d="M0 1436v75h565v-75q-99 -7 -134.5 -22t-35.5 -46q0 -43 310 -532q102 146 222 330t120 212t-33 38.5t-111 15.5v79h426v-73q-77 -9 -112 -52l-459 -634q-6 -135 -6 -447q0 -151 10 -168q18 -33 71 -46t134 -19v-72h-635v72q31 2 51.5 4.5t48.5 7t46 11.5t35 17t25.5 24.5 t8.5 33.5q0 150 -2 291t-4 207l-2 65q-46 82 -408 606q-2 4 -6.5 10t-18.5 22t-28 28.5t-35.5 23.5t-42.5 13zM434 1788q0 7 8 29t22 49.5t36.5 48t46.5 20.5q29 0 74 -38t45 -87q0 -50 -42.5 -98.5t-76.5 -48.5q-30 0 -71.5 51t-41.5 74zM817 1788q0 24 35 85.5t78 61.5 q30 0 75.5 -38t45.5 -87q0 -50 -43 -98.5t-78 -48.5q-30 0 -71.5 51t-41.5 74z" />
<glyph unicode="&#x2c6;" horiz-adv-x="1024" d="M258 1190q64 93 136.5 205.5t90.5 144.5h82q26 -51 91 -167t108 -179l-33 -27l-231 217l-203 -221z" />
<glyph unicode="&#x2dc;" horiz-adv-x="1024" d="M186 1233q34 49 116 126t110 77q25 0 59.5 -19t88 -47t110.5 -43q64 18 137 88l31 -24q-34 -50 -105.5 -118.5t-99.5 -68.5q-34 0 -126 54.5t-132 54.5q-34 -10 -80 -42.5t-82 -66.5z" />
<glyph unicode="&#x2000;" horiz-adv-x="1000" />
<glyph unicode="&#x2001;" horiz-adv-x="2001" />
<glyph unicode="&#x2002;" horiz-adv-x="1000" />
<glyph unicode="&#x2003;" horiz-adv-x="2001" />
<glyph unicode="&#x2004;" horiz-adv-x="667" />
<glyph unicode="&#x2005;" horiz-adv-x="500" />
<glyph unicode="&#x2006;" horiz-adv-x="333" />
<glyph unicode="&#x2007;" horiz-adv-x="333" />
<glyph unicode="&#x2008;" horiz-adv-x="250" />
<glyph unicode="&#x2009;" horiz-adv-x="400" />
<glyph unicode="&#x200a;" horiz-adv-x="111" />
<glyph unicode="&#x2010;" horiz-adv-x="552" d="M35 512l28 135h433l22 -22l-24 -113h-459z" />
<glyph unicode="&#x2011;" horiz-adv-x="552" d="M35 512l28 135h433l22 -22l-24 -113h-459z" />
<glyph unicode="&#x2012;" horiz-adv-x="552" d="M35 512l28 135h433l22 -22l-24 -113h-459z" />
<glyph unicode="&#x2013;" horiz-adv-x="1024" d="M53 512l29 135h864l25 -22l-27 -113h-891z" />
<glyph unicode="&#x2014;" horiz-adv-x="2048" d="M53 512l29 135h1888l25 -22l-27 -113h-1915z" />
<glyph unicode="&#x2018;" horiz-adv-x="491" d="M135 1319q0 46 38 123.5t82 134.5t62 57q5 0 17 -10.5t12 -19.5q0 -8 -19.5 -33.5t-39 -63t-19.5 -75.5q0 -33 22 -71t44 -69.5t22 -50.5q0 -3 -16 -31t-40 -57t-40 -29q-32 0 -78.5 74t-46.5 121z" />
<glyph unicode="&#x2019;" horiz-adv-x="491" d="M135 1518q0 3 16 31t40 56.5t40 28.5q32 0 78.5 -73.5t46.5 -120.5q0 -46 -38 -123.5t-82 -135t-62 -57.5q-4 0 -16.5 11t-12.5 20q0 8 19.5 33.5t39 63t19.5 75.5q0 33 -22 71t-44 69.5t-22 50.5z" />
<glyph unicode="&#x201a;" horiz-adv-x="491" d="M135 145q0 3 16 31t40 57t40 29q32 0 78.5 -73.5t46.5 -120.5q0 -46 -38 -123.5t-82 -135t-62 -57.5q-4 0 -16.5 11t-12.5 20q0 8 19.5 33.5t39 63t19.5 75.5q0 33 -22 70.5t-44 69t-22 50.5z" />
<glyph unicode="&#x201c;" horiz-adv-x="811" d="M135 1319q0 46 38 123.5t82 134.5t62 57q5 0 17 -10.5t12 -19.5q0 -8 -19.5 -33.5t-39 -63t-19.5 -75.5q0 -33 22 -71t44 -69.5t22 -50.5q0 -3 -16 -31t-40 -57t-40 -29q-32 0 -78.5 74t-46.5 121zM455 1319q0 46 38 123.5t82 134.5t62 57q5 0 17 -10.5t12 -19.5 q0 -8 -19.5 -33.5t-39 -63t-19.5 -75.5q0 -33 22 -71t44 -69.5t22 -50.5q0 -3 -16 -31t-40 -57t-40 -29q-32 0 -78.5 74t-46.5 121z" />
<glyph unicode="&#x201d;" horiz-adv-x="811" d="M135 1518q0 3 16 31t40 56.5t40 28.5q32 0 78.5 -73.5t46.5 -120.5q0 -46 -38 -123.5t-82 -135t-62 -57.5q-4 0 -16.5 11t-12.5 20q0 8 19.5 33.5t39 63t19.5 75.5q0 33 -22 71t-44 69.5t-22 50.5zM455 1518q0 3 16 31t40 56.5t40 28.5q32 0 78.5 -73.5t46.5 -120.5 q0 -46 -38 -123.5t-82 -135t-62 -57.5q-4 0 -16.5 11t-12.5 20q0 8 19.5 33.5t39 63t19.5 75.5q0 33 -22 71t-44 69.5t-22 50.5z" />
<glyph unicode="&#x201e;" horiz-adv-x="811" d="M135 145q0 3 16 31t40 57t40 29q32 0 78.5 -73.5t46.5 -120.5q0 -46 -38 -123.5t-82 -135t-62 -57.5q-4 0 -16.5 11t-12.5 20q0 8 19.5 33.5t39 63t19.5 75.5q0 33 -22 70.5t-44 69t-22 50.5zM455 145q0 3 16 31t40 57t40 29q32 0 78.5 -73.5t46.5 -120.5 q0 -46 -38 -123.5t-82 -135t-62 -57.5q-4 0 -16.5 11t-12.5 20q0 8 19.5 33.5t39 63t19.5 75.5q0 33 -22 70.5t-44 69t-22 50.5z" />
<glyph unicode="&#x2022;" d="M223 674q0 30 112 145t140 117q32 0 153 -89t128 -128q0 -3 2 -29.5t2 -30.5q0 -23 -71.5 -103t-156.5 -150q-14 -9 -24 -9q-11 0 -25.5 6.5t-24.5 13.5t-40 27l-66 45l-59 48q-39 32 -54.5 58.5t-15.5 78.5z" />
<glyph unicode="&#x2026;" horiz-adv-x="1474" d="M129 152q0 25 36 78t71 53q34 0 80 -76t46 -105q0 -34 -49.5 -88.5t-85.5 -54.5q-28 0 -63 85t-35 108zM621 152q0 25 35.5 78t70.5 53q34 0 80.5 -76t46.5 -105q0 -34 -49.5 -88.5t-85.5 -54.5q-28 0 -63 85t-35 108zM1112 152q0 25 36 78t71 53q34 0 80.5 -76 t46.5 -105q0 -34 -50 -88.5t-86 -54.5q-28 0 -63 85t-35 108z" />
<glyph unicode="&#x202f;" horiz-adv-x="400" />
<glyph unicode="&#x2039;" horiz-adv-x="665" d="M57 502q81 58 251 208.5t202 184.5l65 -33l-313 -366l311 -363l-59 -31q-297 288 -457 400z" />
<glyph unicode="&#x203a;" horiz-adv-x="667" d="M92 862l64 33q45 -45 209 -190.5t245 -202.5q-150 -103 -456 -400l-60 31l312 363z" />
<glyph unicode="&#x205f;" horiz-adv-x="500" />
<glyph unicode="&#x20ac;" d="M10 584l39 96h113q14 94 33 137q34 76 158 165t233 89q228 0 327 -147l-47 -115l-32 -2q-1 1 -12 16t-13.5 18.5t-14 17t-17.5 18t-20 15.5t-25 15.5t-29 12t-35.5 10.5t-40.5 5.5t-49 2.5q-130 0 -176.5 -58.5t-51.5 -199.5h463l-39 -96h-428v-49v-43h389l-39 -97h-346 q4 -60 17 -104.5t41 -83.5t79.5 -59.5t124.5 -20.5q178 0 326 145l45 -47q-6 -6 -35 -35.5t-37.5 -38t-35.5 -34.5t-38.5 -35t-37.5 -29.5t-42 -28.5t-41.5 -21.5t-46 -19t-46.5 -10t-52 -4.5q-105 0 -184 35.5t-125.5 98.5t-72 134.5t-35.5 157.5h-138l39 97h95v12 q0 53 2 80h-142z" />
<glyph unicode="&#xe000;" horiz-adv-x="1075" d="M0 0v1075h1075v-1075h-1075z" />
</font>
</defs>
</svg>
